<?xml version="1.0" encoding="utf-8"?>
<!-- Generator: Adobe Illustrator 24.2.3, SVG Export Plug-In . SVG Version: 6.00 Build 0)  -->
<svg version="1.1" id="Capa_1" xmlns="http://www.w3.org/2000/svg" xmlns:xlink="http://www.w3.org/1999/xlink" x="0px" y="0px"
	 viewBox="0 0 141.7 141.7" style="enable-background:new 0 0 141.7 141.7;" xml:space="preserve">
<style type="text/css">
	.st0{fill:none;stroke:#4A7780;stroke-width:8.5087;stroke-linecap:round;stroke-miterlimit:10;}
</style>
<g>
	<circle class="st0" cx="70.5" cy="71.3" r="14"/>
	<path class="st0" d="M38.9,108.2"/>
	<path class="st0" d="M102.2,108.2"/>
	<path class="st0" d="M102.2,34.4"/>
	<path class="st0" d="M38.9,34.4"/>
	<path class="st0" d="M93.8,34.4c10.4,8.9,17,22.2,17,36.9s-6.6,28-17,36.9"/>
	<path class="st0" d="M47.3,108.2c-10.4-8.9-17-22.2-17-36.9s6.6-28,17-36.9"/>
	<g>
		<path class="st0" d="M28.5,119.5"/>
		<path class="st0" d="M112.6,119.5"/>
		<path class="st0" d="M112.6,23.1"/>
		<path class="st0" d="M28.5,23.1"/>
		<path class="st0" d="M112.6,23.1c13.4,11.7,21.9,29,21.9,48.2s-8.5,36.5-21.9,48.2"/>
		<path class="st0" d="M28.5,119.5c-13.4-11.7-21.9-29-21.9-48.2s8.5-36.5,21.9-48.2"/>
		<path class="st0" d="M112.6,119.5c13.4-11.7,21.9-29,21.9-48.2s-8.5-36.5-21.9-48.2"/>
		<path class="st0" d="M28.5,23.1C15.1,34.8,6.6,52.1,6.6,71.3s8.5,36.5,21.9,48.2"/>
	</g>
</g>
</svg>
