<?xml version="1.0" encoding="utf-8"?>
<!-- Generator: Adobe Illustrator 24.2.3, SVG Export Plug-In . SVG Version: 6.00 Build 0)  -->
<svg version="1.1" id="Capa_1" xmlns="http://www.w3.org/2000/svg" xmlns:xlink="http://www.w3.org/1999/xlink" x="0px" y="0px"
	 viewBox="0 0 425.2 68.3" style="enable-background:new 0 0 425.2 68.3;" xml:space="preserve">
<style type="text/css">
	.st0{fill:#FFFFFF;}
	.st1{fill:#15418F;}
	.st2{fill:#FAE809;}
	.st3{fill:#9EA7D3;}
</style>
<g>
	<rect x="169.5" y="1.6" class="st0" width="97" height="65.8"/>
	<rect x="171.5" y="3.6" class="st1" width="93.2" height="62.2"/>
	<polygon class="st2" points="216.1,17.1 218,15.7 220,17.1 219.3,14.8 221.3,13.4 218.8,13.4 218,11 217.3,13.4 214.8,13.4 
		216.8,14.8 	"/>
	<polygon class="st2" points="205.9,19.8 207.9,18.4 209.8,19.8 209.1,17.5 211.1,16.1 208.6,16.1 207.9,13.7 207.1,16.1 
		204.6,16.1 206.6,17.5 	"/>
	<polygon class="st2" points="200.4,21.2 199.7,23.6 197.2,23.6 199.2,25 198.4,27.3 200.4,25.9 202.4,27.3 201.6,25 203.6,23.6 
		201.2,23.6 	"/>
	<polygon class="st2" points="197.7,36 199.6,37.5 198.9,35.2 200.9,33.7 198.4,33.7 197.7,31.4 196.9,33.7 194.5,33.7 196.5,35.2 
		195.7,37.5 	"/>
	<polygon class="st2" points="201.2,43.9 200.4,41.6 199.7,43.9 197.2,43.9 199.2,45.4 198.4,47.7 200.4,46.2 202.4,47.7 
		201.6,45.4 203.6,43.9 	"/>
	<polygon class="st2" points="208.6,51.4 207.9,49 207.1,51.4 204.7,51.4 206.7,52.8 205.9,55.1 207.9,53.7 209.8,55.1 209.1,52.8 
		211.1,51.4 	"/>
	<polygon class="st2" points="218.8,54.1 218,51.7 217.3,54.1 214.8,54.1 216.8,55.5 216.1,57.8 218,56.4 220,57.8 219.3,55.5 
		221.3,54.1 	"/>
	<polygon class="st2" points="229,51.4 228.2,49 227.5,51.4 225,51.4 227,52.8 226.2,55.1 228.2,53.7 230.2,55.1 229.4,52.8 
		231.4,51.4 	"/>
	<polygon class="st2" points="236.4,43.9 235.7,41.6 234.9,43.9 232.5,43.9 234.5,45.4 233.7,47.7 235.7,46.2 237.6,47.7 
		236.9,45.4 238.9,43.9 	"/>
	<polygon class="st2" points="241.6,33.7 239.1,33.7 238.4,31.3 237.6,33.7 235.2,33.7 237.2,35.1 236.4,37.5 238.4,36 240.3,37.5 
		239.6,35.1 	"/>
	<polygon class="st2" points="233.7,27.3 235.7,25.8 237.6,27.3 236.9,25 238.9,23.5 236.4,23.5 235.7,21.2 234.9,23.5 232.5,23.5 
		234.5,25 	"/>
	<polygon class="st2" points="228.2,13.7 227.5,16.1 225,16.1 227,17.5 226.3,19.9 228.2,18.4 230.2,19.9 229.5,17.5 231.5,16.1 
		229,16.1 	"/>
	<path class="st1" d="M288.1,9.7l1.8,0.6c-0.3,1-0.7,1.8-1.4,2.2c-0.6,0.5-1.5,0.7-2.4,0.7c-1.2,0-2.2-0.4-3-1.3
		c-0.8-0.8-1.2-2-1.2-3.4c0-1.5,0.4-2.7,1.2-3.6c0.8-0.8,1.8-1.3,3.1-1.3c1.1,0,2,0.3,2.7,1c0.4,0.4,0.7,1,0.9,1.7L288,6.8
		c-0.1-0.5-0.3-0.9-0.7-1.1c-0.3-0.3-0.8-0.4-1.3-0.4c-0.7,0-1.2,0.2-1.7,0.7s-0.6,1.3-0.6,2.4c0,1.2,0.2,2,0.6,2.5
		c0.4,0.5,1,0.7,1.6,0.7c0.5,0,0.9-0.2,1.3-0.5C287.7,10.8,287.9,10.3,288.1,9.7"/>
	<path class="st1" d="M292.9,9.7c0,0.7,0.2,1.2,0.5,1.5c0.3,0.4,0.7,0.5,1.2,0.5s0.8-0.2,1.2-0.5c0.3-0.4,0.5-0.9,0.5-1.5
		c0-0.7-0.2-1.2-0.5-1.5c-0.3-0.4-0.7-0.5-1.2-0.5s-0.8,0.2-1.2,0.5C293,8.6,292.9,9.1,292.9,9.7 M291.1,9.6c0-0.6,0.1-1.2,0.4-1.7
		c0.3-0.5,0.7-1,1.2-1.3c0.5-0.3,1.1-0.4,1.8-0.4c1,0,1.8,0.3,2.5,1c0.6,0.7,1,1.5,1,2.5c0,1-0.3,1.8-1,2.5c-0.7,0.7-1.5,1-2.5,1
		c-0.6,0-1.2-0.1-1.8-0.4c-0.6-0.3-1-0.7-1.3-1.2C291.2,11,291.1,10.4,291.1,9.6"/>
	<path class="st1" d="M298.6,6.4h1V5.9c0-0.6,0.1-1,0.2-1.3c0.1-0.3,0.3-0.5,0.7-0.7c0.3-0.2,0.7-0.3,1.2-0.3c0.5,0,1,0.1,1.5,0.2
		l-0.2,1.2C302.6,5.1,302.3,5,302,5c-0.3,0-0.4,0.1-0.5,0.2c-0.1,0.1-0.2,0.3-0.2,0.7v0.5h1.3v1.4h-1.3v5.3h-1.8V7.8h-1V6.4z"/>
	<path class="st1" d="M303.6,6.4h1.8v6.7h-1.8V6.4z M303.6,3.8h1.8v1.6h-1.8V3.8z"/>
	<path class="st1" d="M313.3,13.1h-1.8V9.7c0-0.7,0-1.2-0.1-1.4c-0.1-0.2-0.2-0.4-0.4-0.5c-0.2-0.1-0.4-0.2-0.6-0.2
		c-0.3,0-0.6,0.1-0.8,0.3c-0.2,0.2-0.4,0.4-0.5,0.7C309,8.8,309,9.3,309,10v3h-1.8V6.4h1.6v1c0.6-0.8,1.3-1.1,2.2-1.1
		c0.4,0,0.7,0.1,1.1,0.2c0.3,0.1,0.6,0.3,0.7,0.5c0.2,0.2,0.3,0.5,0.3,0.7c0.1,0.3,0.1,0.7,0.1,1.2V13.1z"/>
	<path class="st1" d="M318.8,9.9c-0.2,0.1-0.6,0.2-1.1,0.3c-0.5,0.1-0.8,0.2-1,0.3c-0.2,0.2-0.3,0.4-0.3,0.6c0,0.2,0.1,0.5,0.3,0.6
		c0.2,0.2,0.4,0.3,0.7,0.3c0.3,0,0.6-0.1,0.9-0.3c0.2-0.2,0.4-0.4,0.4-0.6c0-0.2,0.1-0.4,0.1-0.9V9.9z M316.4,8.4l-1.6-0.3
		c0.2-0.6,0.5-1.1,0.9-1.4c0.4-0.3,1.1-0.5,2-0.5c0.8,0,1.4,0.1,1.8,0.3c0.4,0.2,0.7,0.4,0.8,0.7c0.2,0.3,0.2,0.8,0.2,1.6l0,2.1
		c0,0.6,0,1,0.1,1.3c0.1,0.3,0.2,0.6,0.3,0.9h-1.7c0-0.1-0.1-0.3-0.2-0.5c0-0.1-0.1-0.2-0.1-0.2c-0.3,0.3-0.6,0.5-1,0.7
		c-0.3,0.1-0.7,0.2-1.1,0.2c-0.7,0-1.2-0.2-1.6-0.6c-0.4-0.4-0.6-0.8-0.6-1.4c0-0.4,0.1-0.7,0.3-1c0.2-0.3,0.4-0.5,0.8-0.7
		c0.3-0.2,0.8-0.3,1.4-0.4c0.8-0.2,1.4-0.3,1.7-0.4V8.5c0-0.3-0.1-0.6-0.3-0.7c-0.2-0.1-0.5-0.2-0.9-0.2c-0.3,0-0.6,0.1-0.7,0.2
		C316.6,7.9,316.5,8.1,316.4,8.4"/>
	<path class="st1" d="M328.3,13.1h-1.8V9.7c0-0.7,0-1.2-0.1-1.4c-0.1-0.2-0.2-0.4-0.4-0.5c-0.2-0.1-0.4-0.2-0.6-0.2
		c-0.3,0-0.6,0.1-0.8,0.3c-0.2,0.2-0.4,0.4-0.5,0.7C324,8.8,324,9.3,324,10v3h-1.8V6.4h1.6v1c0.6-0.8,1.3-1.1,2.2-1.1
		c0.4,0,0.7,0.1,1.1,0.2c0.3,0.1,0.6,0.3,0.7,0.5c0.2,0.2,0.3,0.5,0.3,0.7c0.1,0.3,0.1,0.7,0.1,1.2V13.1z"/>
	<path class="st1" d="M335.9,8.4l-1.7,0.3c-0.1-0.3-0.2-0.6-0.4-0.8c-0.2-0.2-0.5-0.3-0.8-0.3c-0.4,0-0.8,0.2-1.1,0.5
		c-0.3,0.3-0.4,0.8-0.4,1.5c0,0.8,0.1,1.4,0.4,1.7c0.3,0.3,0.6,0.5,1.1,0.5c0.3,0,0.6-0.1,0.8-0.3c0.2-0.2,0.4-0.5,0.5-1l1.7,0.3
		c-0.2,0.8-0.5,1.4-1,1.8c-0.5,0.4-1.2,0.6-2.1,0.6c-1,0-1.8-0.3-2.3-0.9c-0.6-0.6-0.9-1.5-0.9-2.6c0-1.1,0.3-2,0.9-2.6
		c0.6-0.6,1.4-0.9,2.4-0.9c0.8,0,1.5,0.2,1.9,0.5C335.4,7.1,335.7,7.6,335.9,8.4"/>
	<path class="st1" d="M337.2,6.4h1.8v6.7h-1.8V6.4z M337.2,3.8h1.8v1.6h-1.8V3.8z"/>
	<path class="st1" d="M344.5,9.9c-0.2,0.1-0.6,0.2-1.1,0.3c-0.5,0.1-0.8,0.2-1,0.3c-0.2,0.2-0.3,0.4-0.3,0.6c0,0.2,0.1,0.5,0.3,0.6
		c0.2,0.2,0.4,0.3,0.7,0.3c0.3,0,0.6-0.1,0.9-0.3c0.2-0.2,0.4-0.4,0.4-0.6c0-0.2,0.1-0.4,0.1-0.9V9.9z M342.1,8.4l-1.6-0.3
		c0.2-0.6,0.5-1.1,0.9-1.4c0.4-0.3,1.1-0.5,2-0.5c0.8,0,1.4,0.1,1.8,0.3c0.4,0.2,0.7,0.4,0.8,0.7c0.2,0.3,0.2,0.8,0.2,1.6l0,2.1
		c0,0.6,0,1,0.1,1.3c0.1,0.3,0.2,0.6,0.3,0.9h-1.7c0-0.1-0.1-0.3-0.2-0.5c0-0.1-0.1-0.2-0.1-0.2c-0.3,0.3-0.6,0.5-1,0.7
		c-0.3,0.1-0.7,0.2-1.1,0.2c-0.7,0-1.2-0.2-1.6-0.6c-0.4-0.4-0.6-0.8-0.6-1.4c0-0.4,0.1-0.7,0.3-1c0.2-0.3,0.4-0.5,0.8-0.7
		c0.3-0.2,0.8-0.3,1.4-0.4c0.8-0.2,1.4-0.3,1.7-0.4V8.5c0-0.3-0.1-0.6-0.3-0.7c-0.2-0.1-0.5-0.2-0.9-0.2c-0.3,0-0.6,0.1-0.7,0.2
		C342.4,7.9,342.3,8.1,342.1,8.4"/>
	<path class="st1" d="M349.4,9.6c0,0.7,0.1,1.2,0.3,1.5c0.3,0.5,0.7,0.7,1.2,0.7c0.4,0,0.8-0.2,1-0.5c0.3-0.3,0.4-0.9,0.4-1.5
		c0-0.8-0.1-1.3-0.4-1.7c-0.3-0.3-0.6-0.5-1.1-0.5c-0.4,0-0.8,0.2-1.1,0.5C349.5,8.4,349.4,8.9,349.4,9.6 M354.1,13.1h-1.6v-1
		c-0.3,0.4-0.6,0.7-1,0.9c-0.4,0.2-0.7,0.3-1.1,0.3c-0.8,0-1.4-0.3-2-0.9c-0.5-0.6-0.8-1.5-0.8-2.6c0-1.1,0.3-2,0.8-2.6
		c0.5-0.6,1.2-0.9,2-0.9c0.7,0,1.4,0.3,1.9,0.9V3.8h1.8V13.1z"/>
	<path class="st1" d="M357.3,9.7c0,0.7,0.2,1.2,0.5,1.5c0.3,0.4,0.7,0.5,1.2,0.5c0.5,0,0.8-0.2,1.2-0.5c0.3-0.4,0.5-0.9,0.5-1.5
		c0-0.7-0.2-1.2-0.5-1.5c-0.3-0.4-0.7-0.5-1.2-0.5c-0.5,0-0.8,0.2-1.2,0.5C357.4,8.6,357.3,9.1,357.3,9.7 M355.4,9.6
		c0-0.6,0.1-1.2,0.4-1.7c0.3-0.5,0.7-1,1.2-1.3c0.5-0.3,1.1-0.4,1.8-0.4c1,0,1.8,0.3,2.5,1c0.6,0.7,1,1.5,1,2.5c0,1-0.3,1.8-1,2.5
		c-0.7,0.7-1.5,1-2.5,1c-0.6,0-1.2-0.1-1.8-0.4c-0.6-0.3-1-0.7-1.3-1.2C355.6,11,355.4,10.4,355.4,9.6"/>
	<path class="st1" d="M369,9.6c0,0.8,0.1,1.3,0.4,1.7c0.3,0.4,0.7,0.5,1.1,0.5c0.4,0,0.8-0.2,1-0.5c0.3-0.3,0.4-0.9,0.4-1.6
		c0-0.7-0.1-1.2-0.4-1.6c-0.3-0.3-0.6-0.5-1-0.5c-0.4,0-0.8,0.2-1.1,0.5C369.1,8.5,369,9,369,9.6 M367.2,6.4h1.6v1
		c0.2-0.3,0.5-0.6,0.9-0.8c0.4-0.2,0.8-0.3,1.2-0.3c0.8,0,1.4,0.3,2,0.9c0.5,0.6,0.8,1.5,0.8,2.5c0,1.1-0.3,2-0.8,2.6
		c-0.5,0.6-1.2,0.9-2,0.9c-0.4,0-0.7-0.1-1-0.2s-0.6-0.4-0.9-0.8v3.4h-1.8V6.4z"/>
	<path class="st1" d="M376.6,9.7c0,0.7,0.2,1.2,0.5,1.5c0.3,0.4,0.7,0.5,1.2,0.5c0.5,0,0.8-0.2,1.2-0.5c0.3-0.4,0.5-0.9,0.5-1.5
		c0-0.7-0.2-1.2-0.5-1.5c-0.3-0.4-0.7-0.5-1.2-0.5c-0.5,0-0.8,0.2-1.2,0.5C376.7,8.6,376.6,9.1,376.6,9.7 M374.7,9.6
		c0-0.6,0.1-1.2,0.4-1.7c0.3-0.5,0.7-1,1.2-1.3c0.5-0.3,1.1-0.4,1.8-0.4c1,0,1.8,0.3,2.5,1c0.6,0.7,1,1.5,1,2.5c0,1-0.3,1.8-1,2.5
		c-0.7,0.7-1.5,1-2.5,1c-0.6,0-1.2-0.1-1.8-0.4c-0.6-0.3-1-0.7-1.3-1.2C374.9,11,374.7,10.4,374.7,9.6"/>
	<path class="st1" d="M384.7,13.1h-1.8V6.4h1.6v0.9c0.3-0.4,0.5-0.7,0.8-0.9c0.2-0.1,0.5-0.2,0.8-0.2c0.4,0,0.8,0.1,1.2,0.3
		l-0.5,1.5c-0.3-0.2-0.6-0.3-0.8-0.3c-0.2,0-0.5,0.1-0.6,0.2c-0.2,0.1-0.3,0.4-0.4,0.7c-0.1,0.4-0.1,1.1-0.1,2.2V13.1z"/>
	<rect x="282.2" y="19.1" class="st1" width="1.8" height="9.2"/>
	<path class="st1" d="M289.4,25.1c-0.2,0.1-0.6,0.2-1.1,0.3c-0.5,0.1-0.8,0.2-1,0.3c-0.2,0.2-0.3,0.4-0.3,0.6c0,0.2,0.1,0.5,0.3,0.6
		c0.2,0.2,0.4,0.3,0.7,0.3c0.3,0,0.6-0.1,0.9-0.3c0.2-0.2,0.4-0.4,0.4-0.6c0-0.2,0.1-0.4,0.1-0.9V25.1z M287.1,23.6l-1.6-0.3
		c0.2-0.6,0.5-1.1,0.9-1.4c0.4-0.3,1.1-0.5,2-0.5c0.8,0,1.4,0.1,1.8,0.3c0.4,0.2,0.7,0.4,0.8,0.7c0.2,0.3,0.2,0.8,0.2,1.6l0,2.1
		c0,0.6,0,1,0.1,1.3c0.1,0.3,0.2,0.6,0.3,0.9h-1.7c0-0.1-0.1-0.3-0.2-0.5c0-0.1-0.1-0.2-0.1-0.2c-0.3,0.3-0.6,0.5-1,0.7
		c-0.3,0.1-0.7,0.2-1.1,0.2c-0.7,0-1.2-0.2-1.6-0.6c-0.4-0.4-0.6-0.8-0.6-1.4c0-0.4,0.1-0.7,0.3-1c0.2-0.3,0.4-0.5,0.8-0.7
		c0.3-0.2,0.8-0.3,1.4-0.4c0.8-0.2,1.4-0.3,1.7-0.4v-0.2c0-0.3-0.1-0.6-0.3-0.7c-0.2-0.1-0.5-0.2-0.9-0.2c-0.3,0-0.6,0.1-0.7,0.2
		C287.3,23.1,287.2,23.3,287.1,23.6"/>
	<path class="st1" d="M296.5,19.1h1.9v5c0,0.8,0,1.3,0.1,1.5c0.1,0.4,0.3,0.7,0.6,0.9c0.3,0.2,0.7,0.3,1.2,0.3
		c0.5,0,0.9-0.1,1.2-0.3c0.3-0.2,0.4-0.5,0.5-0.8c0.1-0.3,0.1-0.8,0.1-1.6v-5.1h1.9v4.8c0,1.1-0.1,1.9-0.2,2.3
		c-0.1,0.5-0.3,0.8-0.6,1.2c-0.3,0.3-0.6,0.6-1.1,0.8c-0.5,0.2-1,0.3-1.8,0.3c-0.9,0-1.5-0.1-2-0.3c-0.5-0.2-0.8-0.5-1.1-0.8
		c-0.3-0.3-0.4-0.7-0.5-1c-0.1-0.5-0.2-1.3-0.2-2.3V19.1z"/>
	<polygon class="st1" points="305.8,28.3 305.8,19.1 307.6,19.1 311.4,25.2 311.4,19.1 313.1,19.1 313.1,28.3 311.3,28.3 
		307.6,22.3 307.6,28.3 	"/>
	<rect x="315" y="19.1" class="st1" width="1.9" height="9.2"/>
	<path class="st1" d="M321.6,18.5l0.9-1.9h2l-1.7,1.9H321.6z M320.2,23.7c0,1,0.2,1.8,0.7,2.4c0.5,0.5,1.1,0.8,1.8,0.8
		c0.7,0,1.3-0.3,1.8-0.8c0.5-0.5,0.7-1.3,0.7-2.4c0-1.1-0.2-1.8-0.7-2.4c-0.5-0.5-1.1-0.8-1.8-0.8c-0.8,0-1.4,0.3-1.9,0.8
		C320.5,21.8,320.2,22.6,320.2,23.7 M318.3,23.7c0-0.9,0.1-1.7,0.4-2.4c0.2-0.5,0.5-0.9,0.9-1.3c0.4-0.4,0.8-0.6,1.2-0.8
		c0.6-0.2,1.2-0.4,2-0.4c1.4,0,2.4,0.4,3.3,1.3c0.8,0.8,1.2,2,1.2,3.5c0,1.5-0.4,2.7-1.2,3.5c-0.8,0.8-1.9,1.3-3.2,1.3
		c-1.4,0-2.5-0.4-3.3-1.3C318.7,26.3,318.3,25.2,318.3,23.7"/>
	<polygon class="st1" points="328.7,28.3 328.7,19.1 330.5,19.1 334.3,25.2 334.3,19.1 336,19.1 336,28.3 334.2,28.3 330.4,22.3 
		330.4,28.3 	"/>
	<polygon class="st1" points="341.6,28.3 341.6,19.1 348.4,19.1 348.4,20.6 343.4,20.6 343.4,22.7 348,22.7 348,24.2 343.4,24.2 
		343.4,26.7 348.6,26.7 348.6,28.3 	"/>
	<path class="st1" d="M350.1,19.1h1.9v5c0,0.8,0,1.3,0.1,1.5c0.1,0.4,0.3,0.7,0.6,0.9c0.3,0.2,0.7,0.3,1.2,0.3
		c0.5,0,0.9-0.1,1.2-0.3c0.3-0.2,0.4-0.5,0.5-0.8c0.1-0.3,0.1-0.8,0.1-1.6v-5.1h1.9v4.8c0,1.1-0.1,1.9-0.2,2.3
		c-0.1,0.5-0.3,0.8-0.6,1.2c-0.3,0.3-0.6,0.6-1.1,0.8c-0.5,0.2-1,0.3-1.8,0.3c-0.9,0-1.5-0.1-2-0.3c-0.5-0.2-0.8-0.5-1.1-0.8
		c-0.3-0.3-0.4-0.7-0.5-1c-0.1-0.5-0.2-1.3-0.2-2.3V19.1z"/>
	<path class="st1" d="M361.3,23h1.4c0.9,0,1.4,0,1.7-0.1c0.2-0.1,0.4-0.2,0.5-0.4c0.1-0.2,0.2-0.4,0.2-0.7c0-0.3-0.1-0.6-0.2-0.8
		c-0.2-0.2-0.4-0.3-0.7-0.4c-0.2,0-0.6,0-1.4,0h-1.5V23z M359.4,28.3v-9.2h3.9c1,0,1.7,0.1,2.1,0.2c0.4,0.2,0.8,0.5,1.1,0.9
		c0.3,0.4,0.4,0.9,0.4,1.5c0,0.7-0.2,1.3-0.6,1.7c-0.4,0.5-1,0.7-1.8,0.9c0.4,0.2,0.7,0.5,1,0.8c0.3,0.3,0.6,0.8,1.1,1.5l1.1,1.8
		h-2.2l-1.3-2c-0.5-0.7-0.8-1.2-1-1.4c-0.2-0.2-0.4-0.3-0.6-0.4c-0.2-0.1-0.5-0.1-0.9-0.1h-0.4v3.8H359.4z"/>
	<path class="st1" d="M370.3,23.7c0,1,0.2,1.8,0.7,2.4c0.5,0.5,1.1,0.8,1.8,0.8c0.7,0,1.3-0.3,1.8-0.8c0.5-0.5,0.7-1.3,0.7-2.4
		c0-1.1-0.2-1.8-0.7-2.4c-0.5-0.5-1.1-0.8-1.8-0.8c-0.8,0-1.4,0.3-1.9,0.8C370.5,21.8,370.3,22.6,370.3,23.7 M368.4,23.7
		c0-0.9,0.1-1.7,0.4-2.4c0.2-0.5,0.5-0.9,0.9-1.3c0.4-0.4,0.8-0.6,1.2-0.8c0.6-0.2,1.2-0.4,2-0.4c1.4,0,2.4,0.4,3.3,1.3
		c0.8,0.8,1.2,2,1.2,3.5c0,1.5-0.4,2.7-1.2,3.5c-0.8,0.8-1.9,1.3-3.2,1.3c-1.4,0-2.5-0.4-3.3-1.3C368.8,26.3,368.4,25.2,368.4,23.7"
		/>
	<path class="st1" d="M380.6,20.6v2.6h1c0.7,0,1.2,0,1.5-0.1c0.2-0.1,0.4-0.2,0.6-0.5c0.1-0.2,0.2-0.4,0.2-0.7
		c0-0.3-0.1-0.6-0.3-0.8c-0.2-0.2-0.4-0.4-0.7-0.4c-0.2,0-0.7-0.1-1.3-0.1H380.6z M378.8,28.3v-9.2h3c1.1,0,1.9,0,2.2,0.1
		c0.5,0.1,1,0.4,1.3,0.9c0.4,0.5,0.5,1.1,0.5,1.8c0,0.6-0.1,1-0.3,1.4c-0.2,0.4-0.5,0.7-0.8,0.9c-0.3,0.2-0.6,0.4-1,0.4
		c-0.4,0.1-1.1,0.1-1.9,0.1h-1.2v3.5H378.8z"/>
	<polygon class="st1" points="387.3,28.3 387.3,19.1 394.2,19.1 394.2,20.6 389.2,20.6 389.2,22.7 393.8,22.7 393.8,24.2 
		389.2,24.2 389.2,26.7 394.3,26.7 394.3,28.3 	"/>
	<path class="st1" d="M400.8,24.6l-1.3-3.4l-1.2,3.4H400.8z M404.2,28.3h-2l-0.8-2.1h-3.7l-0.8,2.1h-2l3.6-9.2h2L404.2,28.3z"/>
	<path class="st1" d="M288.1,46.9l1.8,0.6c-0.3,1-0.7,1.8-1.4,2.2c-0.6,0.5-1.5,0.7-2.4,0.7c-1.2,0-2.2-0.4-3-1.3
		c-0.8-0.8-1.2-2-1.2-3.4c0-1.5,0.4-2.7,1.2-3.6c0.8-0.8,1.8-1.3,3.1-1.3c1.1,0,2,0.3,2.7,1c0.4,0.4,0.7,1,0.9,1.7l-1.8,0.4
		c-0.1-0.5-0.3-0.9-0.7-1.1c-0.3-0.3-0.8-0.4-1.3-0.4c-0.7,0-1.2,0.2-1.7,0.7c-0.4,0.5-0.6,1.3-0.6,2.4c0,1.2,0.2,2,0.6,2.5
		c0.4,0.5,1,0.7,1.6,0.7c0.5,0,0.9-0.2,1.3-0.5C287.7,48.1,288,47.6,288.1,46.9"/>
	<path class="st1" d="M292.9,46.9c0,0.7,0.2,1.2,0.5,1.5c0.3,0.4,0.7,0.5,1.2,0.5c0.5,0,0.8-0.2,1.2-0.5c0.3-0.4,0.5-0.9,0.5-1.5
		c0-0.7-0.2-1.2-0.5-1.5c-0.3-0.4-0.7-0.5-1.2-0.5c-0.5,0-0.8,0.2-1.2,0.5C293.1,45.8,292.9,46.3,292.9,46.9 M291.1,46.8
		c0-0.6,0.1-1.2,0.4-1.7c0.3-0.5,0.7-1,1.2-1.3c0.5-0.3,1.1-0.4,1.8-0.4c1,0,1.8,0.3,2.5,1c0.6,0.7,1,1.5,1,2.5c0,1-0.3,1.8-1,2.5
		c-0.7,0.7-1.5,1-2.5,1c-0.6,0-1.2-0.1-1.8-0.4c-0.6-0.3-1-0.7-1.3-1.2C291.3,48.3,291.1,47.6,291.1,46.8"/>
	<path class="st1" d="M298.6,43.6h1v-0.5c0-0.6,0.1-1,0.2-1.3c0.1-0.3,0.3-0.5,0.7-0.7c0.3-0.2,0.7-0.3,1.2-0.3c0.5,0,1,0.1,1.5,0.2
		l-0.2,1.2c-0.3-0.1-0.6-0.1-0.8-0.1c-0.3,0-0.4,0.1-0.6,0.2c-0.1,0.1-0.2,0.3-0.2,0.7v0.5h1.3V45h-1.3v5.3h-1.8V45h-1V43.6z"/>
	<path class="st1" d="M303.7,43.6h1.8v6.7h-1.8V43.6z M303.7,41.1h1.8v1.6h-1.8V41.1z"/>
	<path class="st1" d="M313.3,50.3h-1.8v-3.4c0-0.7,0-1.2-0.1-1.4c-0.1-0.2-0.2-0.4-0.4-0.5c-0.2-0.1-0.4-0.2-0.6-0.2
		c-0.3,0-0.6,0.1-0.8,0.3c-0.2,0.2-0.4,0.4-0.5,0.7c-0.1,0.3-0.1,0.8-0.1,1.5v3h-1.8v-6.7h1.6v1c0.6-0.8,1.3-1.1,2.2-1.1
		c0.4,0,0.7,0.1,1.1,0.2c0.3,0.1,0.6,0.3,0.7,0.5c0.2,0.2,0.3,0.5,0.3,0.7c0.1,0.3,0.1,0.7,0.1,1.2V50.3z"/>
	<path class="st1" d="M318.8,47.1c-0.2,0.1-0.6,0.2-1.1,0.3c-0.5,0.1-0.8,0.2-1,0.3c-0.2,0.2-0.3,0.4-0.3,0.6c0,0.2,0.1,0.5,0.3,0.6
		c0.2,0.2,0.4,0.3,0.7,0.3c0.3,0,0.6-0.1,0.9-0.3c0.2-0.2,0.4-0.4,0.4-0.6c0-0.2,0.1-0.4,0.1-0.9V47.1z M316.4,45.6l-1.6-0.3
		c0.2-0.6,0.5-1.1,0.9-1.4c0.4-0.3,1.1-0.5,2-0.5c0.8,0,1.4,0.1,1.8,0.3c0.4,0.2,0.7,0.4,0.8,0.7c0.2,0.3,0.2,0.8,0.2,1.6l0,2.1
		c0,0.6,0,1,0.1,1.3c0.1,0.3,0.2,0.6,0.3,0.9h-1.7c0-0.1-0.1-0.3-0.2-0.5c0-0.1-0.1-0.2-0.1-0.2c-0.3,0.3-0.6,0.5-1,0.7
		c-0.3,0.1-0.7,0.2-1.1,0.2c-0.7,0-1.2-0.2-1.6-0.6c-0.4-0.4-0.6-0.8-0.6-1.4c0-0.4,0.1-0.7,0.3-1c0.2-0.3,0.4-0.5,0.8-0.7
		c0.3-0.2,0.8-0.3,1.4-0.4c0.8-0.2,1.4-0.3,1.7-0.4v-0.2c0-0.3-0.1-0.6-0.3-0.7c-0.2-0.1-0.5-0.2-0.9-0.2c-0.3,0-0.6,0.1-0.7,0.2
		C316.7,45.1,316.5,45.3,316.4,45.6"/>
	<path class="st1" d="M328.4,50.3h-1.8v-3.4c0-0.7,0-1.2-0.1-1.4c-0.1-0.2-0.2-0.4-0.4-0.5c-0.2-0.1-0.4-0.2-0.6-0.2
		c-0.3,0-0.6,0.1-0.8,0.3c-0.2,0.2-0.4,0.4-0.5,0.7c-0.1,0.3-0.1,0.8-0.1,1.5v3h-1.8v-6.7h1.6v1c0.6-0.8,1.3-1.1,2.2-1.1
		c0.4,0,0.7,0.1,1.1,0.2c0.3,0.1,0.6,0.3,0.7,0.5c0.2,0.2,0.3,0.5,0.3,0.7c0.1,0.3,0.1,0.7,0.1,1.2V50.3z"/>
	<path class="st1" d="M336,45.6l-1.7,0.3c-0.1-0.3-0.2-0.6-0.4-0.8c-0.2-0.2-0.5-0.3-0.8-0.3c-0.4,0-0.8,0.2-1.1,0.5
		c-0.3,0.3-0.4,0.8-0.4,1.5c0,0.8,0.1,1.4,0.4,1.7c0.3,0.3,0.6,0.5,1.1,0.5c0.3,0,0.6-0.1,0.8-0.3c0.2-0.2,0.4-0.5,0.5-1L336,48
		c-0.2,0.8-0.5,1.4-1,1.8c-0.5,0.4-1.2,0.6-2.1,0.6c-1,0-1.8-0.3-2.3-0.9c-0.6-0.6-0.9-1.5-0.9-2.6c0-1.1,0.3-2,0.9-2.6
		c0.6-0.6,1.4-0.9,2.4-0.9c0.8,0,1.5,0.2,1.9,0.5C335.4,44.3,335.8,44.9,336,45.6"/>
	<path class="st1" d="M339,42.8l0.9-1.9h2l-1.7,1.9H339z M341.3,46.4c0-0.5-0.1-0.9-0.4-1.2c-0.3-0.3-0.6-0.4-0.9-0.4
		c-0.4,0-0.7,0.1-1,0.4c-0.3,0.3-0.4,0.7-0.4,1.1H341.3z M341.2,48.1l1.8,0.3c-0.2,0.6-0.6,1.1-1.1,1.5c-0.5,0.3-1.1,0.5-1.8,0.5
		c-1.2,0-2-0.4-2.6-1.1c-0.4-0.6-0.7-1.4-0.7-2.3c0-1.1,0.3-2,0.9-2.6c0.6-0.6,1.3-0.9,2.2-0.9c1,0,1.8,0.3,2.4,1
		c0.6,0.7,0.8,1.7,0.8,3h-4.4c0,0.5,0.2,0.9,0.4,1.2c0.3,0.3,0.6,0.4,1,0.4c0.3,0,0.5-0.1,0.7-0.2C340.9,48.7,341.1,48.5,341.2,48.1
		"/>
	<path class="st1" d="M349.7,46.8c0,0.8,0.1,1.3,0.4,1.7c0.3,0.4,0.7,0.5,1.1,0.5c0.4,0,0.8-0.2,1-0.5c0.3-0.3,0.4-0.9,0.4-1.6
		c0-0.7-0.1-1.2-0.4-1.6c-0.3-0.3-0.6-0.5-1-0.5c-0.4,0-0.8,0.2-1.1,0.5C349.9,45.7,349.7,46.2,349.7,46.8 M348,43.6h1.6v1
		c0.2-0.3,0.5-0.6,0.9-0.8c0.4-0.2,0.8-0.3,1.2-0.3c0.8,0,1.4,0.3,2,0.9c0.5,0.6,0.8,1.5,0.8,2.5c0,1.1-0.3,2-0.8,2.6
		c-0.5,0.6-1.2,0.9-2,0.9c-0.4,0-0.7-0.1-1-0.2c-0.3-0.1-0.6-0.4-0.9-0.8v3.4H348V43.6z"/>
	<path class="st1" d="M359.6,47.1c-0.2,0.1-0.6,0.2-1.1,0.3c-0.5,0.1-0.8,0.2-1,0.3c-0.2,0.2-0.3,0.4-0.3,0.6c0,0.2,0.1,0.5,0.3,0.6
		c0.2,0.2,0.4,0.3,0.7,0.3c0.3,0,0.6-0.1,0.9-0.3c0.2-0.2,0.4-0.4,0.4-0.6c0-0.2,0.1-0.4,0.1-0.9V47.1z M357.2,45.6l-1.6-0.3
		c0.2-0.6,0.5-1.1,0.9-1.4c0.4-0.3,1.1-0.5,2-0.5c0.8,0,1.4,0.1,1.8,0.3c0.4,0.2,0.7,0.4,0.8,0.7c0.2,0.3,0.2,0.8,0.2,1.6l0,2.1
		c0,0.6,0,1,0.1,1.3c0.1,0.3,0.2,0.6,0.3,0.9H360c0-0.1-0.1-0.3-0.2-0.5c0-0.1-0.1-0.2-0.1-0.2c-0.3,0.3-0.6,0.5-1,0.7
		c-0.3,0.1-0.7,0.2-1.1,0.2c-0.7,0-1.2-0.2-1.6-0.6c-0.4-0.4-0.6-0.8-0.6-1.4c0-0.4,0.1-0.7,0.3-1c0.2-0.3,0.4-0.5,0.8-0.7
		c0.3-0.2,0.8-0.3,1.4-0.4c0.8-0.2,1.4-0.3,1.7-0.4v-0.2c0-0.3-0.1-0.6-0.3-0.7c-0.2-0.1-0.5-0.2-0.9-0.2c-0.3,0-0.6,0.1-0.7,0.2
		C357.5,45.1,357.3,45.3,357.2,45.6"/>
	<path class="st1" d="M364.7,50.3H363v-6.7h1.6v0.9c0.3-0.4,0.5-0.7,0.8-0.9c0.2-0.1,0.5-0.2,0.8-0.2c0.4,0,0.8,0.1,1.2,0.3
		l-0.5,1.5c-0.3-0.2-0.6-0.3-0.8-0.3c-0.2,0-0.5,0.1-0.6,0.2c-0.2,0.1-0.3,0.4-0.4,0.7c-0.1,0.4-0.1,1.1-0.1,2.2V50.3z"/>
	<rect x="282.2" y="56.3" class="st1" width="1.8" height="9.2"/>
	<path class="st1" d="M285.8,56.3h1.8v1.3c0,0.5,0,0.9-0.1,1.2c-0.1,0.3-0.3,0.6-0.5,0.8c-0.2,0.2-0.6,0.4-0.9,0.6l-0.3-0.7
		c0.4-0.1,0.6-0.3,0.8-0.5c0.2-0.2,0.2-0.5,0.2-0.8h-0.9V56.3z"/>
	<path class="st1" d="M289.4,56.3h1.9v5c0,0.8,0,1.3,0.1,1.5c0.1,0.4,0.3,0.7,0.6,0.9c0.3,0.2,0.7,0.3,1.2,0.3
		c0.5,0,0.9-0.1,1.2-0.3c0.3-0.2,0.4-0.5,0.5-0.8c0.1-0.3,0.1-0.8,0.1-1.6v-5.1h1.9v4.8c0,1.1-0.1,1.9-0.2,2.3
		c-0.1,0.5-0.3,0.8-0.6,1.2c-0.3,0.3-0.6,0.6-1.1,0.8c-0.5,0.2-1,0.3-1.8,0.3c-0.9,0-1.5-0.1-2-0.3c-0.5-0.2-0.8-0.5-1.1-0.8
		c-0.3-0.3-0.4-0.7-0.5-1c-0.1-0.5-0.2-1.3-0.2-2.3V56.3z"/>
	<polygon class="st1" points="298.7,65.5 298.7,56.3 300.5,56.3 304.3,62.4 304.3,56.3 306,56.3 306,65.5 304.2,65.5 300.4,59.5 
		300.4,65.5 	"/>
	<rect x="307.9" y="56.3" class="st1" width="1.9" height="9.2"/>
	<path class="st1" d="M313.1,60.9c0,1,0.2,1.8,0.7,2.4c0.5,0.5,1.1,0.8,1.8,0.8c0.7,0,1.3-0.3,1.8-0.8c0.5-0.5,0.7-1.3,0.7-2.4
		c0-1.1-0.2-1.8-0.7-2.4c-0.5-0.5-1.1-0.8-1.8-0.8c-0.8,0-1.4,0.3-1.9,0.8C313.3,59,313.1,59.8,313.1,60.9 M311.2,60.9
		c0-0.9,0.1-1.7,0.4-2.4c0.2-0.5,0.5-0.9,0.9-1.3c0.4-0.4,0.8-0.6,1.2-0.8c0.6-0.2,1.2-0.4,2-0.4c1.4,0,2.4,0.4,3.3,1.3
		s1.2,2,1.2,3.5c0,1.5-0.4,2.7-1.2,3.5c-0.8,0.8-1.9,1.3-3.2,1.3c-1.4,0-2.5-0.4-3.3-1.3C311.6,63.6,311.2,62.4,311.2,60.9"/>
	<polygon class="st1" points="321.6,65.5 321.6,56.3 323.4,56.3 327.2,62.4 327.2,56.3 328.9,56.3 328.9,65.5 327,65.5 323.3,59.5 
		323.3,65.5 	"/>
	<polygon class="st1" points="334.5,65.5 334.5,56.3 341.3,56.3 341.3,57.8 336.3,57.8 336.3,59.9 340.9,59.9 340.9,61.4 
		336.3,61.4 336.3,63.9 341.5,63.9 341.5,65.5 	"/>
	<path class="st1" d="M343,56.3h1.9v5c0,0.8,0,1.3,0.1,1.5c0.1,0.4,0.3,0.7,0.6,0.9c0.3,0.2,0.7,0.3,1.2,0.3c0.5,0,0.9-0.1,1.2-0.3
		c0.3-0.2,0.4-0.5,0.5-0.8c0.1-0.3,0.1-0.8,0.1-1.6v-5.1h1.9v4.8c0,1.1-0.1,1.9-0.2,2.3c-0.1,0.5-0.3,0.8-0.6,1.2
		c-0.3,0.3-0.6,0.6-1.1,0.8c-0.5,0.2-1,0.3-1.8,0.3c-0.9,0-1.5-0.1-2-0.3c-0.5-0.2-0.8-0.5-1.1-0.8c-0.3-0.3-0.4-0.7-0.5-1
		c-0.1-0.5-0.2-1.3-0.2-2.3V56.3z"/>
	<path class="st1" d="M354.2,60.2h1.4c0.9,0,1.4,0,1.7-0.1c0.2-0.1,0.4-0.2,0.5-0.4s0.2-0.4,0.2-0.7c0-0.3-0.1-0.6-0.2-0.8
		c-0.2-0.2-0.4-0.3-0.7-0.4c-0.2,0-0.6,0-1.4,0h-1.5V60.2z M352.3,65.5v-9.2h3.9c1,0,1.7,0.1,2.1,0.2c0.4,0.2,0.8,0.5,1.1,0.9
		c0.3,0.4,0.4,0.9,0.4,1.5c0,0.7-0.2,1.3-0.6,1.7c-0.4,0.5-1,0.7-1.8,0.9c0.4,0.2,0.7,0.5,1,0.8c0.3,0.3,0.6,0.8,1.1,1.5l1.1,1.8
		h-2.2l-1.3-2c-0.5-0.7-0.8-1.2-1-1.4c-0.2-0.2-0.4-0.3-0.6-0.4c-0.2-0.1-0.5-0.1-0.9-0.1h-0.4v3.8H352.3z"/>
	<path class="st1" d="M363.2,60.9c0,1,0.2,1.8,0.7,2.4c0.5,0.5,1.1,0.8,1.8,0.8c0.7,0,1.3-0.3,1.8-0.8c0.5-0.5,0.7-1.3,0.7-2.4
		c0-1.1-0.2-1.8-0.7-2.4c-0.5-0.5-1.1-0.8-1.8-0.8c-0.8,0-1.4,0.3-1.9,0.8C363.4,59,363.2,59.8,363.2,60.9 M361.3,60.9
		c0-0.9,0.1-1.7,0.4-2.4c0.2-0.5,0.5-0.9,0.9-1.3c0.4-0.4,0.8-0.6,1.2-0.8c0.6-0.2,1.2-0.4,2-0.4c1.4,0,2.4,0.4,3.3,1.3
		c0.8,0.8,1.2,2,1.2,3.5c0,1.5-0.4,2.7-1.2,3.5c-0.8,0.8-1.9,1.3-3.2,1.3c-1.4,0-2.5-0.4-3.3-1.3C361.7,63.6,361.3,62.4,361.3,60.9"
		/>
	<path class="st1" d="M373.5,57.8v2.6h1c0.7,0,1.2,0,1.5-0.1c0.2-0.1,0.4-0.2,0.6-0.5c0.1-0.2,0.2-0.4,0.2-0.7
		c0-0.3-0.1-0.6-0.3-0.8c-0.2-0.2-0.4-0.4-0.7-0.4c-0.2,0-0.7-0.1-1.3-0.1H373.5z M371.6,65.5v-9.2h3c1.1,0,1.9,0,2.2,0.1
		c0.5,0.1,1,0.4,1.3,0.9c0.4,0.5,0.5,1.1,0.5,1.8c0,0.6-0.1,1-0.3,1.4c-0.2,0.4-0.5,0.7-0.8,0.9c-0.3,0.2-0.6,0.4-1,0.4
		c-0.4,0.1-1.1,0.1-1.9,0.1h-1.2v3.5H371.6z"/>
	<path class="st1" d="M382.6,55.7l0.9-1.9h2l-1.7,1.9H382.6z M380.2,65.5v-9.2h6.8v1.6h-5v2h4.6v1.6h-4.6v2.5h5.1v1.6H380.2z"/>
	<polygon class="st1" points="388.8,65.5 388.8,56.3 395.6,56.3 395.6,57.8 390.7,57.8 390.7,59.9 395.3,59.9 395.3,61.4 
		390.7,61.4 390.7,63.9 395.8,63.9 395.8,65.5 	"/>
	<polygon class="st1" points="397.4,65.5 397.4,56.3 399.2,56.3 403,62.4 403,56.3 404.7,56.3 404.7,65.5 402.9,65.5 399.1,59.5 
		399.1,65.5 	"/>
	<polygon class="st1" points="406.7,65.5 406.7,56.3 408.5,56.3 412.3,62.4 412.3,56.3 414,56.3 414,65.5 412.2,65.5 408.4,59.5 
		408.4,65.5 	"/>
	<polygon class="st1" points="416,65.5 416,56.3 422.8,56.3 422.8,57.8 417.9,57.8 417.9,59.9 422.5,59.9 422.5,61.4 417.9,61.4 
		417.9,63.9 423,63.9 423,65.5 	"/>
	<path class="st3" d="M108.8,13.4c2,0,3.3,1.3,3.8,3.2c1.8,0.2,3.5,0.3,5.2,0.5c-0.7-4.4-3.6-8.1-9.1-8.1c-4.3,0-7.7,2.8-8.9,6.6
		c1.7,0.1,3.5,0.2,5.2,0.3C105.7,14.4,107,13.4,108.8,13.4"/>
	<path class="st1" d="M99.3,19.1c0,5.8,4.2,9.8,9.9,9.8c3.4,0,6-1.4,7.8-3.6l-3.1-2.7c-1.5,1.4-2.8,2-4.6,2c-2.4,0-4.1-1.3-4.7-3.7
		H118c0-0.5,0.1-1,0.1-1.4c0-0.8-0.1-1.5-0.2-2.3c-1.7-0.2-3.5-0.4-5.2-0.5c0.1,0.3,0.1,0.5,0.2,0.8h-8.1c0.1-0.5,0.2-1,0.4-1.5
		c-1.7-0.1-3.4-0.2-5.2-0.3C99.5,16.7,99.3,17.9,99.3,19.1L99.3,19.1z"/>
	<path class="st3" d="M7.1,3.6H1.6v16.8c1.8-0.3,3.6-0.7,5.5-1V3.6z"/>
	<path class="st3" d="M40.5,14.1H45V9.5h-4.5V4.6h-5.4v4.9h-2.3v4.6h2.3v2.1c1.8-0.1,3.6-0.3,5.4-0.4V14.1z"/>
	<path class="st3" d="M57.5,13.4c1.3,0,2.4,0.6,3.1,1.5c1.8,0,3.6-0.1,5.4-0.1c-1.3-3.3-4-5.8-8.5-5.8c-4.2,0-7.5,2.6-8.8,6.2
		c1.8-0.1,3.7-0.2,5.6-0.2C55,14.1,56.1,13.4,57.5,13.4"/>
	<path class="st3" d="M80.4,14.9c0.5-0.1,1-0.2,1.6-0.2h0.3V9.1c-3.2-0.1-5,1.6-6.1,4.2V9.5h-5.4v5.4H71
		C74.2,14.8,77.3,14.9,80.4,14.9"/>
	<path class="st3" d="M96.8,14.8h0.3V9.1c-3.2-0.1-5,1.6-6.1,4.2V9.5h-5.4V15c2.8,0.1,5.6,0.2,8.3,0.3C94.7,15,95.7,14.8,96.8,14.8"
		/>
	<path class="st3" d="M125.9,18.1L125.9,18.1c0-2.7,2-4.5,4.6-4.5c2.6,0,4.7,1.8,4.7,4.4v0.1c0,0.5-0.1,1-0.2,1.4
		c1.9,0.3,3.7,0.6,5.5,1v-11h-5.4V12c-1.5-1.6-3.2-2.8-6.1-2.8c-4.2,0-8.2,3-8.4,8.4C122.3,17.7,124.1,17.9,125.9,18.1
		C125.9,18.1,125.9,18.1,125.9,18.1"/>
	<path class="st3" d="M19.5,14.1c0.4-0.2,1.1-0.3,1.5-0.3c0.4,0,1.2,0.2,1.5,0.3c1.4,0.7,2,1.6,2.2,3c1.7-0.2,3.4-0.3,5.2-0.5
		c-0.6-2.8-2.3-5.1-4.8-6.4c-1.2-0.6-2.5-1.1-4.1-1.1c-1.5,0-2.9,0.5-4.1,1.1c-3.2,1.6-5,4.9-5.1,8.5c1.8-0.3,3.6-0.5,5.4-0.7
		C17.3,16.1,17.9,14.9,19.5,14.1"/>
	<path class="st1" d="M7.1,28.5v-9c-1.9,0.3-3.7,0.6-5.5,1v8.1H7.1z"/>
	<path class="st1" d="M40.6,28.8c1.8,0,3.1-0.4,4.3-1.1v-4.3c-0.8,0.4-1.7,0.7-2.7,0.7c-1.2,0-1.7-0.6-1.7-1.8v-6.4
		c-1.8,0.1-3.6,0.2-5.4,0.4v6.9C35.1,27.5,37.3,28.8,40.6,28.8"/>
	<path class="st1" d="M48,19.1c0,5.8,4.2,9.8,9.9,9.8c3.4,0,6-1.4,7.8-3.6l-3.1-2.7c-1.5,1.4-2.8,2-4.6,2c-2.4,0-4.1-1.3-4.7-3.7
		h13.3c0-0.5,0.1-1,0.1-1.4c0-1.6-0.3-3.2-0.8-4.6c-1.8,0-3.6,0-5.4,0.1c0.5,0.7,0.8,1.5,1,2.6h-8.1c0.2-0.9,0.5-1.7,0.9-2.4
		c-1.9,0.1-3.7,0.1-5.6,0.2C48.3,16.5,48,17.7,48,19.1L48,19.1z"/>
	<path class="st1" d="M76.1,28.5v-7c0-3.8,1.6-6,4.2-6.6c-3.1-0.1-6.2-0.1-9.3-0.1h-0.3v13.7H76.1z"/>
	<path class="st1" d="M91,28.5v-7c0-3.2,1.1-5.2,2.9-6.1c-2.7-0.1-5.5-0.2-8.3-0.3v13.5H91z"/>
	<path class="st1" d="M120.5,18.1c0,5.6,4,8.9,8.5,8.9c2.9,0,4.6-1.2,6.2-3.1v0.9c0,3.4-1.7,5.2-5.4,5.2c-2.5,0-4.5-0.6-6.4-1.7
		l-1.8,4c2.4,1.3,5.3,2,8.4,2c3.7,0,6.4-0.8,8.2-2.6c1.6-1.6,2.4-4.1,2.4-7.5v-3.8c-1.8-0.3-3.7-0.7-5.5-1c-0.6,1.8-2.3,3-4.4,3
		c-2.6,0-4.6-1.7-4.6-4.3c-1.8-0.2-3.6-0.5-5.4-0.7C120.5,17.6,120.5,17.8,120.5,18.1L120.5,18.1z"/>
	<path class="st1" d="M24.8,18v1.9v7.9v0.7h5.4v-9.4V19c0-0.8-0.1-1.6-0.3-2.4c-1.8,0.2-3.5,0.3-5.2,0.5
		C24.8,17.4,24.8,17.7,24.8,18"/>
	<path class="st1" d="M11.9,19.1v9.4h5.4v-0.7v-7.9V18c0,0,0,0,0,0c-1.8,0.2-3.6,0.5-5.4,0.7C11.9,18.8,11.9,18.9,11.9,19.1
		L11.9,19.1z"/>
	<path class="st1" d="M13,55.5c0.7-0.6,1.1-1.4,1.1-2.5c0-1.1-0.4-2-1.1-2.6c-0.7-0.6-1.8-0.9-3.1-0.9H6.1v6.9h3.7
		C11.3,56.4,12.3,56.1,13,55.5 M14.7,46.6c1.3,0.6,2.3,1.4,3,2.5c0.7,1.1,1,2.4,1,3.8c0,1.5-0.4,2.7-1,3.8c-0.7,1.1-1.7,1.9-3,2.5
		c-1.3,0.6-2.8,0.9-4.6,0.9h-4v5.5H1.5V45.7h8.6C11.9,45.7,13.4,46,14.7,46.6"/>
	<path class="st1" d="M35.1,61.2c0.9-0.5,1.7-1.3,2.2-2.3c0.5-1,0.8-2.1,0.8-3.3c0-1.2-0.3-2.3-0.8-3.3c-0.5-1-1.3-1.7-2.2-2.3
		c-0.9-0.5-2-0.8-3.2-0.8c-1.2,0-2.2,0.3-3.2,0.8c-0.9,0.5-1.7,1.3-2.2,2.3c-0.5,1-0.8,2.1-0.8,3.3c0,1.2,0.3,2.3,0.8,3.3
		c0.5,1,1.3,1.7,2.2,2.3c0.9,0.5,2,0.8,3.2,0.8C33.1,62,34.1,61.7,35.1,61.2 M26.3,64.6c-1.7-0.9-2.9-2.1-3.9-3.7
		c-0.9-1.6-1.4-3.3-1.4-5.3c0-1.9,0.5-3.7,1.4-5.3c0.9-1.6,2.2-2.8,3.9-3.7c1.7-0.9,3.5-1.3,5.6-1.3s3.9,0.4,5.6,1.3
		c1.6,0.9,2.9,2.1,3.9,3.7c0.9,1.6,1.4,3.3,1.4,5.3c0,1.9-0.5,3.7-1.4,5.3c-0.9,1.6-2.2,2.8-3.9,3.7c-1.6,0.9-3.5,1.3-5.6,1.3
		S28,65.5,26.3,64.6"/>
	<path class="st1" d="M50.2,64.6c-1.6-0.9-2.9-2.1-3.9-3.7c-0.9-1.6-1.4-3.3-1.4-5.3c0-2,0.5-3.7,1.4-5.3c0.9-1.6,2.2-2.8,3.9-3.7
		c1.6-0.9,3.5-1.3,5.5-1.3c1.7,0,3.3,0.3,4.7,0.9c1.4,0.6,2.6,1.5,3.5,2.6L61,51.6c-1.3-1.5-3-2.3-5-2.3c-1.2,0-2.3,0.3-3.3,0.8
		c-1,0.5-1.7,1.3-2.3,2.3c-0.5,1-0.8,2.1-0.8,3.3c0,1.2,0.3,2.3,0.8,3.3c0.5,1,1.3,1.7,2.3,2.3c1,0.5,2.1,0.8,3.3,0.8
		c2,0,3.6-0.8,5-2.4l2.9,2.7c-0.9,1.2-2.1,2-3.5,2.6c-1.4,0.6-3,0.9-4.7,0.9C53.7,65.9,51.9,65.5,50.2,64.6"/>
	<polygon class="st1" points="71.9,49.5 65.6,49.5 65.6,45.7 82.9,45.7 82.9,49.5 76.5,49.5 76.5,65.6 71.9,65.6 	"/>
	<polygon class="st1" points="101,61.9 101,65.6 85.6,65.6 85.6,45.7 100.6,45.7 100.6,49.4 90.2,49.4 90.2,53.7 99.4,53.7 
		99.4,57.3 90.2,57.3 90.2,61.9 	"/>
	<polygon class="st1" points="109.2,49.4 109.2,54.7 118.4,54.7 118.4,58.4 109.2,58.4 109.2,65.6 104.6,65.6 104.6,45.7 
		119.6,45.7 119.6,49.4 	"/>
	<path class="st1" d="M133.6,57.8l-3.1-7.6l-3.1,7.6H133.6z M135,61.3h-9.2l-1.8,4.3h-4.7l8.8-19.8h4.5l8.9,19.8h-4.8L135,61.3z"/>
</g>
</svg>
