<?xml version="1.0" encoding="utf-8"?>
<!-- Generator: Adobe Illustrator 24.2.3, SVG Export Plug-In . SVG Version: 6.00 Build 0)  -->
<svg version="1.1" id="Capa_1" xmlns="http://www.w3.org/2000/svg" xmlns:xlink="http://www.w3.org/1999/xlink" x="0px" y="0px"
	 viewBox="0 0 1048.6 629.9" style="enable-background:new 0 0 1048.6 629.9;" xml:space="preserve">
<style type="text/css">
	.st0{fill:#FFFFFF;}
	.st1{fill:#C3C3C3;}
	.st2{fill:#DEDEDE;}
	.st3{fill:#263D42;}
	.st4{fill:#4A7780;}
	.st5{fill:#7F584E;}
	.st6{fill:#906B5E;}
</style>
<g>
	<path class="st0" d="M17.5,608.9c1,0.8,1.5,2,1.5,3.4s-0.5,2.6-1.5,3.4c-1,0.8-2.4,1.2-4.1,1.2H9.7v4.3H8.3v-13.6h5.1
		C15.1,607.6,16.5,608,17.5,608.9z M16.4,614.8c0.7-0.6,1.1-1.4,1.1-2.5c0-1.1-0.4-2-1.1-2.5c-0.7-0.6-1.7-0.9-3.1-0.9H9.7v6.8h3.6
		C14.7,615.7,15.7,615.4,16.4,614.8z"/>
	<path class="st0" d="M33.3,620v1.2h-9.6v-13.6H33v1.2h-7.9v4.9h7.1v1.2h-7.1v5.1H33.3z"/>
	<path class="st0" d="M47.5,621.3l-3.1-4.4c-0.4,0-0.7,0.1-1.1,0.1h-3.7v4.3h-1.4v-13.6h5.1c1.7,0,3.1,0.4,4.1,1.2
		c1,0.8,1.5,2,1.5,3.4c0,1.1-0.3,2-0.8,2.7c-0.5,0.7-1.3,1.3-2.3,1.6l3.3,4.7H47.5z M46.4,614.8c0.7-0.6,1.1-1.4,1.1-2.5
		c0-1.1-0.4-2-1.1-2.5c-0.7-0.6-1.7-0.9-3.1-0.9h-3.6v6.8h3.6C44.6,615.7,45.7,615.4,46.4,614.8z"/>
	<path class="st0" d="M68.1,607.6v13.6h-1.4v-10.9l-5.4,9.2h-0.7l-5.4-9.1v10.9h-1.4v-13.6h1.2l5.9,10.1l5.9-10.1H68.1z"/>
	<path class="st0" d="M82.6,617.6H75l-1.6,3.6h-1.5l6.2-13.6h1.4l6.2,13.6h-1.5L82.6,617.6z M82.1,616.5l-3.3-7.3l-3.3,7.3H82.1z"/>
	<path class="st0" d="M91,608.9v5.4h7.1v1.2H91v5.8h-1.4v-13.6H99v1.2H91z"/>
	<path class="st0" d="M112.8,621.3l-3.1-4.4c-0.4,0-0.7,0.1-1.1,0.1h-3.7v4.3h-1.4v-13.6h5.1c1.7,0,3.1,0.4,4.1,1.2
		c1,0.8,1.5,2,1.5,3.4c0,1.1-0.3,2-0.8,2.7c-0.5,0.7-1.3,1.3-2.3,1.6l3.3,4.7H112.8z M111.7,614.8c0.7-0.6,1.1-1.4,1.1-2.5
		c0-1.1-0.4-2-1.1-2.5c-0.7-0.6-1.7-0.9-3.1-0.9h-3.6v6.8h3.6C109.9,615.7,110.9,615.4,111.7,614.8z"/>
	<path class="st0" d="M121.4,620.5c-1.1-0.6-2-1.4-2.6-2.5c-0.6-1.1-0.9-2.2-0.9-3.5s0.3-2.5,0.9-3.5c0.6-1.1,1.5-1.9,2.6-2.5
		c1.1-0.6,2.3-0.9,3.7-0.9c1.4,0,2.6,0.3,3.7,0.9c1.1,0.6,1.9,1.4,2.6,2.5c0.6,1.1,0.9,2.2,0.9,3.6s-0.3,2.5-0.9,3.6
		c-0.6,1.1-1.5,1.9-2.6,2.5c-1.1,0.6-2.3,0.9-3.7,0.9C123.8,621.4,122.5,621.1,121.4,620.5z M128,619.4c0.9-0.5,1.6-1.2,2-2
		c0.5-0.9,0.7-1.8,0.7-2.9c0-1.1-0.2-2-0.7-2.9c-0.5-0.9-1.2-1.5-2-2c-0.9-0.5-1.8-0.7-2.9-0.7c-1.1,0-2.1,0.2-2.9,0.7
		c-0.9,0.5-1.6,1.2-2.1,2c-0.5,0.9-0.8,1.8-0.8,2.9c0,1.1,0.2,2,0.8,2.9c0.5,0.9,1.2,1.5,2.1,2c0.9,0.5,1.9,0.7,2.9,0.7
		C126.2,620.1,127.2,619.9,128,619.4z"/>
	<path class="st0" d="M137.9,620.9c-0.9-0.3-1.6-0.8-2.2-1.3l0.6-1.1c0.5,0.5,1.2,0.9,2,1.2c0.8,0.3,1.7,0.5,2.5,0.5
		c1.2,0,2.1-0.2,2.7-0.7c0.6-0.4,0.9-1,0.9-1.7c0-0.5-0.2-1-0.5-1.3c-0.3-0.3-0.7-0.6-1.2-0.8c-0.5-0.2-1.2-0.4-2-0.6
		c-1-0.3-1.8-0.5-2.5-0.8c-0.6-0.2-1.1-0.6-1.6-1.1c-0.4-0.5-0.7-1.2-0.7-2c0-0.7,0.2-1.3,0.5-1.9c0.4-0.6,0.9-1,1.7-1.4
		c0.8-0.3,1.7-0.5,2.8-0.5c0.8,0,1.5,0.1,2.3,0.3c0.7,0.2,1.4,0.5,1.9,0.9l-0.5,1.1c-0.6-0.4-1.2-0.7-1.8-0.8
		c-0.6-0.2-1.3-0.3-1.9-0.3c-1.2,0-2.1,0.2-2.7,0.7c-0.6,0.5-0.9,1.1-0.9,1.8c0,0.5,0.2,1,0.5,1.3c0.3,0.3,0.7,0.6,1.2,0.8
		s1.2,0.4,2,0.6c1,0.2,1.8,0.5,2.4,0.7s1.1,0.6,1.6,1.1c0.4,0.5,0.6,1.1,0.6,2c0,0.7-0.2,1.3-0.6,1.9c-0.4,0.6-0.9,1-1.7,1.3
		c-0.8,0.3-1.7,0.5-2.8,0.5C139.8,621.4,138.8,621.2,137.9,620.9z"/>
	<path class="st0" d="M153.1,608.9h-4.8v-1.2h11v1.2h-4.8v12.4h-1.4V608.9z"/>
	<path class="st0" d="M178.4,617.6h-7.6l-1.6,3.6h-1.5l6.2-13.6h1.4l6.2,13.6H180L178.4,617.6z M177.9,616.5l-3.3-7.3l-3.3,7.3
		H177.9z"/>
	<path class="st0" d="M185.4,607.6h1.4V620h7.6v1.2h-9.1V607.6z"/>
	<path class="st0" d="M214.3,608.9c1,0.8,1.5,2,1.5,3.4s-0.5,2.6-1.5,3.4c-1,0.8-2.4,1.2-4.1,1.2h-3.7v4.3h-1.4v-13.6h5.1
		C211.9,607.6,213.3,608,214.3,608.9z M213.3,614.8c0.7-0.6,1.1-1.4,1.1-2.5c0-1.1-0.4-2-1.1-2.5c-0.7-0.6-1.7-0.9-3.1-0.9h-3.6v6.8
		h3.6C211.5,615.7,212.5,615.4,213.3,614.8z"/>
	<path class="st0" d="M220.4,607.6h1.4v13.6h-1.4V607.6z"/>
	<path class="st0" d="M237.2,621.3l-3.1-4.4c-0.4,0-0.7,0.1-1.1,0.1h-3.7v4.3h-1.4v-13.6h5.1c1.7,0,3.1,0.4,4.1,1.2
		c1,0.8,1.5,2,1.5,3.4c0,1.1-0.3,2-0.8,2.7c-0.5,0.7-1.3,1.3-2.3,1.6l3.3,4.7H237.2z M236.1,614.8c0.7-0.6,1.1-1.4,1.1-2.5
		c0-1.1-0.4-2-1.1-2.5c-0.7-0.6-1.7-0.9-3.1-0.9h-3.6v6.8h3.6C234.3,615.7,235.3,615.4,236.1,614.8z"/>
	<path class="st0" d="M243.5,607.6h1.4v13.6h-1.4V607.6z"/>
	<path class="st0" d="M262.4,607.6v13.6h-1.2l-8.8-11.1v11.1H251v-13.6h1.2l8.8,11.1v-11.1H262.4z"/>
	<path class="st0" d="M278.1,620v1.2h-9.6v-13.6h9.4v1.2h-7.9v4.9h7.1v1.2h-7.1v5.1H278.1z"/>
	<path class="st0" d="M284.4,619.9c-1-1-1.5-2.5-1.5-4.4v-7.8h1.4v7.8c0,1.6,0.4,2.8,1.1,3.5c0.7,0.8,1.7,1.2,3.1,1.2
		c1.4,0,2.4-0.4,3.1-1.2c0.7-0.8,1.1-2,1.1-3.5v-7.8h1.4v7.8c0,1.9-0.5,3.4-1.5,4.4s-2.4,1.5-4.1,1.5
		C286.7,621.4,285.4,620.9,284.4,619.9z"/>
	<path class="st0" d="M310.3,609.9l4.2,8.3h-8.3L310.3,609.9z"/>
	<path class="st0" d="M335.8,608.9c1,0.8,1.5,2,1.5,3.4s-0.5,2.6-1.5,3.4c-1,0.8-2.4,1.2-4.1,1.2H328v4.3h-1.4v-13.6h5.1
		C333.4,607.6,334.8,608,335.8,608.9z M334.8,614.8c0.7-0.6,1.1-1.4,1.1-2.5c0-1.1-0.4-2-1.1-2.5c-0.7-0.6-1.7-0.9-3.1-0.9H328v6.8
		h3.6C333,615.7,334,615.4,334.8,614.8z"/>
	<path class="st0" d="M351.6,620v1.2H342v-13.6h9.4v1.2h-7.9v4.9h7.1v1.2h-7.1v5.1H351.6z"/>
	<path class="st0" d="M365.9,621.3l-3.1-4.4c-0.4,0-0.7,0.1-1.1,0.1H358v4.3h-1.4v-13.6h5.1c1.7,0,3.1,0.4,4.1,1.2
		c1,0.8,1.5,2,1.5,3.4c0,1.1-0.3,2-0.8,2.7c-0.5,0.7-1.3,1.3-2.3,1.6l3.3,4.7H365.9z M364.7,614.8c0.7-0.6,1.1-1.4,1.1-2.5
		c0-1.1-0.4-2-1.1-2.5c-0.7-0.6-1.7-0.9-3.1-0.9H358v6.8h3.6C363,615.7,364,615.4,364.7,614.8z"/>
	<path class="st0" d="M386.4,607.6v13.6H385v-10.9l-5.4,9.2H379l-5.4-9.1v10.9h-1.4v-13.6h1.2l5.9,10.1l5.9-10.1H386.4z"/>
	<path class="st0" d="M400.9,617.6h-7.6l-1.6,3.6h-1.5l6.2-13.6h1.4l6.2,13.6h-1.5L400.9,617.6z M400.4,616.5l-3.3-7.3l-3.3,7.3
		H400.4z"/>
	<path class="st0" d="M409.4,608.9v5.4h7.1v1.2h-7.1v5.8h-1.4v-13.6h9.4v1.2H409.4z"/>
	<path class="st0" d="M431.1,621.3l-3.1-4.4c-0.4,0-0.7,0.1-1.1,0.1h-3.7v4.3h-1.4v-13.6h5.1c1.7,0,3.1,0.4,4.1,1.2
		c1,0.8,1.5,2,1.5,3.4c0,1.1-0.3,2-0.8,2.7c-0.5,0.7-1.3,1.3-2.3,1.6l3.3,4.7H431.1z M430,614.8c0.7-0.6,1.1-1.4,1.1-2.5
		c0-1.1-0.4-2-1.1-2.5c-0.7-0.6-1.7-0.9-3.1-0.9h-3.6v6.8h3.6C428.2,615.7,429.3,615.4,430,614.8z"/>
	<path class="st0" d="M439.8,620.5c-1.1-0.6-2-1.4-2.6-2.5c-0.6-1.1-0.9-2.2-0.9-3.5s0.3-2.5,0.9-3.5c0.6-1.1,1.5-1.9,2.6-2.5
		c1.1-0.6,2.3-0.9,3.7-0.9c1.4,0,2.6,0.3,3.7,0.9c1.1,0.6,1.9,1.4,2.6,2.5c0.6,1.1,0.9,2.2,0.9,3.6s-0.3,2.5-0.9,3.6
		c-0.6,1.1-1.5,1.9-2.6,2.5c-1.1,0.6-2.3,0.9-3.7,0.9C442.1,621.4,440.9,621.1,439.8,620.5z M446.4,619.4c0.9-0.5,1.6-1.2,2-2
		c0.5-0.9,0.7-1.8,0.7-2.9c0-1.1-0.2-2-0.7-2.9c-0.5-0.9-1.2-1.5-2-2c-0.9-0.5-1.8-0.7-2.9-0.7c-1.1,0-2.1,0.2-2.9,0.7
		c-0.9,0.5-1.6,1.2-2.1,2c-0.5,0.9-0.8,1.8-0.8,2.9c0,1.1,0.2,2,0.8,2.9c0.5,0.9,1.2,1.5,2.1,2c0.9,0.5,1.9,0.7,2.9,0.7
		C444.5,620.1,445.5,619.9,446.4,619.4z"/>
	<path class="st0" d="M456.2,620.9c-0.9-0.3-1.6-0.8-2.2-1.3l0.6-1.1c0.5,0.5,1.2,0.9,2,1.2c0.8,0.3,1.7,0.5,2.5,0.5
		c1.2,0,2.1-0.2,2.7-0.7c0.6-0.4,0.9-1,0.9-1.7c0-0.5-0.2-1-0.5-1.3c-0.3-0.3-0.7-0.6-1.2-0.8c-0.5-0.2-1.2-0.4-2-0.6
		c-1-0.3-1.8-0.5-2.5-0.8c-0.6-0.2-1.1-0.6-1.6-1.1c-0.4-0.5-0.7-1.2-0.7-2c0-0.7,0.2-1.3,0.5-1.9c0.4-0.6,0.9-1,1.7-1.4
		c0.8-0.3,1.7-0.5,2.8-0.5c0.8,0,1.5,0.1,2.3,0.3c0.7,0.2,1.4,0.5,1.9,0.9l-0.5,1.1c-0.6-0.4-1.2-0.7-1.8-0.8
		c-0.6-0.2-1.3-0.3-1.9-0.3c-1.2,0-2.1,0.2-2.7,0.7c-0.6,0.5-0.9,1.1-0.9,1.8c0,0.5,0.2,1,0.5,1.3c0.3,0.3,0.7,0.6,1.2,0.8
		s1.2,0.4,2,0.6c1,0.2,1.8,0.5,2.4,0.7s1.1,0.6,1.6,1.1c0.4,0.5,0.6,1.1,0.6,2c0,0.7-0.2,1.3-0.6,1.9c-0.4,0.6-0.9,1-1.7,1.3
		c-0.8,0.3-1.7,0.5-2.8,0.5C458.1,621.4,457.2,621.2,456.2,620.9z"/>
	<path class="st0" d="M471.4,608.9h-4.8v-1.2h11v1.2h-4.8v12.4h-1.4V608.9z"/>
	<path class="st0" d="M497.8,620v1.2h-9.6v-13.6h9.4v1.2h-7.9v4.9h7.1v1.2h-7.1v5.1H497.8z"/>
	<path class="st0" d="M514.2,607.6v13.6H513l-8.8-11.1v11.1h-1.4v-13.6h1.2l8.8,11.1v-11.1H514.2z"/>
	<path class="st0" d="M536,608.9c1,0.8,1.5,2,1.5,3.4s-0.5,2.6-1.5,3.4c-1,0.8-2.4,1.2-4.1,1.2h-3.7v4.3h-1.4v-13.6h5.1
		C533.7,607.6,535.1,608,536,608.9z M535,614.8c0.7-0.6,1.1-1.4,1.1-2.5c0-1.1-0.4-2-1.1-2.5c-0.7-0.6-1.7-0.9-3.1-0.9h-3.6v6.8h3.6
		C533.3,615.7,534.3,615.4,535,614.8z"/>
	<path class="st0" d="M542.2,607.6h1.4v13.6h-1.4V607.6z"/>
	<path class="st0" d="M559,621.3l-3.1-4.4c-0.4,0-0.7,0.1-1.1,0.1h-3.7v4.3h-1.4v-13.6h5.1c1.7,0,3.1,0.4,4.1,1.2
		c1,0.8,1.5,2,1.5,3.4c0,1.1-0.3,2-0.8,2.7c-0.5,0.7-1.3,1.3-2.3,1.6l3.3,4.7H559z M557.8,614.8c0.7-0.6,1.1-1.4,1.1-2.5
		c0-1.1-0.4-2-1.1-2.5s-1.7-0.9-3.1-0.9h-3.6v6.8h3.6C556.1,615.7,557.1,615.4,557.8,614.8z"/>
	<path class="st0" d="M565.3,607.6h1.4v13.6h-1.4V607.6z"/>
	<path class="st0" d="M584.2,607.6v13.6H583l-8.8-11.1v11.1h-1.4v-13.6h1.2l8.8,11.1v-11.1H584.2z"/>
	<path class="st0" d="M599.8,620v1.2h-9.6v-13.6h9.4v1.2h-7.9v4.9h7.1v1.2h-7.1v5.1H599.8z"/>
	<path class="st0" d="M607,620.5c-1.1-0.6-2-1.4-2.6-2.5c-0.6-1.1-0.9-2.2-0.9-3.5s0.3-2.5,0.9-3.5c0.6-1.1,1.5-1.9,2.6-2.5
		c1.1-0.6,2.3-0.9,3.7-0.9c1.4,0,2.6,0.3,3.7,0.9c1.1,0.6,1.9,1.4,2.6,2.5c0.6,1.1,0.9,2.2,0.9,3.6s-0.3,2.5-0.9,3.6
		c-0.6,1.1-1.5,1.9-2.6,2.5c-1.1,0.6-2.3,0.9-3.7,0.9C609.3,621.4,608.1,621.1,607,620.5z M613.6,619.4c0.9-0.5,1.6-1.2,2-2
		c0.5-0.9,0.7-1.8,0.7-2.9c0-1.1-0.2-2-0.7-2.9c-0.5-0.9-1.2-1.5-2-2c-0.9-0.5-1.8-0.7-2.9-0.7c-1.1,0-2.1,0.2-2.9,0.7
		c-0.9,0.5-1.6,1.2-2.1,2c-0.5,0.9-0.8,1.8-0.8,2.9c0,1.1,0.2,2,0.8,2.9c0.5,0.9,1.2,1.5,2.1,2c0.9,0.5,1.9,0.7,2.9,0.7
		C611.7,620.1,612.7,619.9,613.6,619.4z"/>
	<path class="st0" d="M623.5,620.9c-0.9-0.3-1.6-0.8-2.2-1.3l0.6-1.1c0.5,0.5,1.2,0.9,2,1.2c0.8,0.3,1.7,0.5,2.5,0.5
		c1.2,0,2.1-0.2,2.7-0.7c0.6-0.4,0.9-1,0.9-1.7c0-0.5-0.2-1-0.5-1.3c-0.3-0.3-0.7-0.6-1.2-0.8c-0.5-0.2-1.2-0.4-2-0.6
		c-1-0.3-1.8-0.5-2.5-0.8s-1.1-0.6-1.6-1.1c-0.4-0.5-0.7-1.2-0.7-2c0-0.7,0.2-1.3,0.5-1.9c0.4-0.6,0.9-1,1.7-1.4s1.7-0.5,2.8-0.5
		c0.8,0,1.5,0.1,2.3,0.3c0.7,0.2,1.4,0.5,1.9,0.9l-0.5,1.1c-0.6-0.4-1.2-0.7-1.8-0.8c-0.7-0.2-1.3-0.3-1.9-0.3
		c-1.2,0-2.1,0.2-2.7,0.7c-0.6,0.5-0.9,1.1-0.9,1.8c0,0.5,0.2,1,0.5,1.3c0.3,0.3,0.7,0.6,1.2,0.8c0.5,0.2,1.2,0.4,2,0.6
		c1,0.2,1.8,0.5,2.4,0.7s1.1,0.6,1.6,1.1c0.4,0.5,0.6,1.1,0.6,2c0,0.7-0.2,1.3-0.6,1.9c-0.4,0.6-0.9,1-1.7,1.3
		c-0.8,0.3-1.7,0.5-2.8,0.5C625.4,621.4,624.4,621.2,623.5,620.9z"/>
	<path class="st0" d="M646.4,609.9l4.2,8.3h-8.3L646.4,609.9z"/>
	<path class="st0" d="M671.9,608.9c1,0.8,1.5,2,1.5,3.4s-0.5,2.6-1.5,3.4c-1,0.8-2.4,1.2-4.1,1.2h-3.7v4.3h-1.4v-13.6h5.1
		C669.6,607.6,671,608,671.9,608.9z M670.9,614.8c0.7-0.6,1.1-1.4,1.1-2.5c0-1.1-0.4-2-1.1-2.5c-0.7-0.6-1.7-0.9-3.1-0.9h-3.6v6.8
		h3.6C669.2,615.7,670.2,615.4,670.9,614.8z"/>
	<path class="st0" d="M687.8,620v1.2h-9.6v-13.6h9.4v1.2h-7.9v4.9h7.1v1.2h-7.1v5.1H687.8z"/>
	<path class="st0" d="M702,621.3l-3.1-4.4c-0.4,0-0.7,0.1-1.1,0.1h-3.7v4.3h-1.4v-13.6h5.1c1.7,0,3.1,0.4,4.1,1.2
		c1,0.8,1.5,2,1.5,3.4c0,1.1-0.3,2-0.8,2.7s-1.3,1.3-2.3,1.6l3.3,4.7H702z M700.9,614.8c0.7-0.6,1.1-1.4,1.1-2.5
		c0-1.1-0.4-2-1.1-2.5c-0.7-0.6-1.7-0.9-3.1-0.9h-3.6v6.8h3.6C699.1,615.7,700.2,615.4,700.9,614.8z"/>
	<path class="st0" d="M718,614.4h1.4v5.2c-0.6,0.6-1.4,1-2.3,1.3c-0.9,0.3-1.8,0.4-2.7,0.4c-1.4,0-2.6-0.3-3.7-0.9
		c-1.1-0.6-2-1.4-2.6-2.5c-0.6-1.1-0.9-2.2-0.9-3.6s0.3-2.5,0.9-3.6c0.6-1.1,1.5-1.9,2.6-2.5s2.3-0.9,3.7-0.9c1,0,2,0.2,2.9,0.5
		c0.9,0.3,1.6,0.8,2.2,1.5l-0.9,0.9c-1.1-1.1-2.5-1.6-4.1-1.6c-1.1,0-2.1,0.2-3,0.7c-0.9,0.5-1.6,1.2-2.1,2
		c-0.5,0.9-0.8,1.8-0.8,2.9c0,1.1,0.3,2,0.8,2.9c0.5,0.9,1.2,1.5,2.1,2c0.9,0.5,1.9,0.7,3,0.7c1.4,0,2.6-0.4,3.6-1.1V614.4z"/>
	<path class="st0" d="M734.6,620v1.2H725v-13.6h9.4v1.2h-7.9v4.9h7.1v1.2h-7.1v5.1H734.6z M731.1,604.1h1.9l-3.2,2.4h-1.4
		L731.1,604.1z"/>
	<path class="st0" d="M739.6,607.6h1.4V620h7.6v1.2h-9.1V607.6z"/>
	<path class="st0" d="M752.6,607.6h1.4v13.6h-1.4V607.6z"/>
	<path class="st0" d="M760.9,620.9c-0.9-0.3-1.6-0.8-2.2-1.3l0.6-1.1c0.5,0.5,1.2,0.9,2,1.2c0.8,0.3,1.7,0.5,2.5,0.5
		c1.2,0,2.1-0.2,2.7-0.7c0.6-0.4,0.9-1,0.9-1.7c0-0.5-0.2-1-0.5-1.3c-0.3-0.3-0.7-0.6-1.2-0.8c-0.5-0.2-1.2-0.4-2-0.6
		c-1-0.3-1.8-0.5-2.5-0.8s-1.1-0.6-1.6-1.1c-0.4-0.5-0.7-1.2-0.7-2c0-0.7,0.2-1.3,0.5-1.9c0.4-0.6,0.9-1,1.7-1.4s1.7-0.5,2.8-0.5
		c0.8,0,1.5,0.1,2.3,0.3c0.7,0.2,1.4,0.5,1.9,0.9l-0.5,1.1c-0.6-0.4-1.2-0.7-1.8-0.8c-0.6-0.2-1.3-0.3-1.9-0.3
		c-1.2,0-2.1,0.2-2.7,0.7c-0.6,0.5-0.9,1.1-0.9,1.8c0,0.5,0.2,1,0.5,1.3c0.3,0.3,0.7,0.6,1.2,0.8s1.2,0.4,2,0.6
		c1,0.2,1.8,0.5,2.4,0.7s1.1,0.6,1.6,1.1c0.4,0.5,0.6,1.1,0.6,2c0,0.7-0.2,1.3-0.6,1.9c-0.4,0.6-0.9,1-1.7,1.3
		c-0.8,0.3-1.7,0.5-2.8,0.5C762.8,621.4,761.9,621.2,760.9,620.9z"/>
	<path class="st0" d="M775.9,620.5c-1.1-0.6-2-1.4-2.6-2.5c-0.6-1.1-0.9-2.2-0.9-3.5s0.3-2.5,0.9-3.5c0.6-1.1,1.5-1.9,2.6-2.5
		c1.1-0.6,2.3-0.9,3.7-0.9c1.4,0,2.6,0.3,3.7,0.9c1.1,0.6,1.9,1.4,2.6,2.5c0.6,1.1,0.9,2.2,0.9,3.6s-0.3,2.5-0.9,3.6
		c-0.6,1.1-1.5,1.9-2.6,2.5c-1.1,0.6-2.3,0.9-3.7,0.9C778.2,621.4,777,621.1,775.9,620.5z M782.5,619.4c0.9-0.5,1.6-1.2,2-2
		c0.5-0.9,0.7-1.8,0.7-2.9c0-1.1-0.2-2-0.7-2.9c-0.5-0.9-1.2-1.5-2-2c-0.9-0.5-1.8-0.7-2.9-0.7c-1.1,0-2.1,0.2-2.9,0.7
		c-0.9,0.5-1.6,1.2-2.1,2c-0.5,0.9-0.8,1.8-0.8,2.9c0,1.1,0.2,2,0.8,2.9c0.5,0.9,1.2,1.5,2.1,2c0.9,0.5,1.9,0.7,2.9,0.7
		C780.7,620.1,781.7,619.9,782.5,619.4z"/>
	<path class="st0" d="M791.5,607.6h1.4V620h7.6v1.2h-9.1V607.6z"/>
	<path class="st0" d="M811.3,607.6h5.6c1.4,0,2.7,0.3,3.8,0.9c1.1,0.6,2,1.4,2.6,2.4s0.9,2.2,0.9,3.5s-0.3,2.5-0.9,3.5
		c-0.6,1-1.5,1.8-2.6,2.4c-1.1,0.6-2.4,0.9-3.8,0.9h-5.6V607.6z M816.7,620c1.2,0,2.2-0.2,3.1-0.7c0.9-0.5,1.6-1.1,2.1-2
		c0.5-0.8,0.7-1.8,0.7-2.9s-0.2-2.1-0.7-2.9c-0.5-0.8-1.2-1.5-2.1-2c-0.9-0.5-1.9-0.7-3.1-0.7h-4V620H816.7z"/>
	<path class="st0" d="M837.3,617.6h-7.6l-1.6,3.6h-1.5l6.2-13.6h1.4l6.2,13.6h-1.5L837.3,617.6z M836.8,616.5l-3.3-7.3l-3.3,7.3
		H836.8z"/>
	<path class="st0" d="M855.7,607.6v13.6h-1.2l-8.8-11.1v11.1h-1.4v-13.6h1.2l8.8,11.1v-11.1H855.7z"/>
	<path class="st0" d="M862.5,620.9c-0.9-0.3-1.6-0.8-2.2-1.3l0.6-1.1c0.5,0.5,1.2,0.9,2,1.2c0.8,0.3,1.7,0.5,2.5,0.5
		c1.2,0,2.1-0.2,2.7-0.7c0.6-0.4,0.9-1,0.9-1.7c0-0.5-0.2-1-0.5-1.3c-0.3-0.3-0.7-0.6-1.2-0.8c-0.5-0.2-1.2-0.4-2-0.6
		c-1-0.3-1.8-0.5-2.5-0.8s-1.1-0.6-1.6-1.1c-0.4-0.5-0.7-1.2-0.7-2c0-0.7,0.2-1.3,0.5-1.9c0.4-0.6,0.9-1,1.7-1.4s1.7-0.5,2.8-0.5
		c0.8,0,1.5,0.1,2.3,0.3c0.7,0.2,1.4,0.5,1.9,0.9l-0.5,1.1c-0.6-0.4-1.2-0.7-1.8-0.8c-0.7-0.2-1.3-0.3-1.9-0.3
		c-1.2,0-2.1,0.2-2.7,0.7c-0.6,0.5-0.9,1.1-0.9,1.8c0,0.5,0.2,1,0.5,1.3c0.3,0.3,0.7,0.6,1.2,0.8c0.5,0.2,1.2,0.4,2,0.6
		c1,0.2,1.8,0.5,2.4,0.7s1.1,0.6,1.6,1.1c0.4,0.5,0.6,1.1,0.6,2c0,0.7-0.2,1.3-0.6,1.9c-0.4,0.6-0.9,1-1.7,1.3
		c-0.8,0.3-1.7,0.5-2.8,0.5C864.4,621.4,863.4,621.2,862.5,620.9z"/>
	<path class="st0" d="M881.9,607.6h1.4V620h7.6v1.2h-9.1V607.6z"/>
	<path class="st0" d="M904.6,620v1.2h-9.6v-13.6h9.4v1.2h-7.9v4.9h7.1v1.2h-7.1v5.1H904.6z"/>
	<path class="st0" d="M910.4,620.9c-0.9-0.3-1.6-0.8-2.2-1.3l0.6-1.1c0.5,0.5,1.2,0.9,2,1.2c0.8,0.3,1.7,0.5,2.5,0.5
		c1.2,0,2.1-0.2,2.7-0.7c0.6-0.4,0.9-1,0.9-1.7c0-0.5-0.2-1-0.5-1.3c-0.3-0.3-0.7-0.6-1.2-0.8c-0.5-0.2-1.2-0.4-2-0.6
		c-1-0.3-1.8-0.5-2.5-0.8c-0.6-0.2-1.1-0.6-1.6-1.1s-0.7-1.2-0.7-2c0-0.7,0.2-1.3,0.5-1.9c0.4-0.6,0.9-1,1.7-1.4
		c0.8-0.3,1.7-0.5,2.8-0.5c0.8,0,1.5,0.1,2.3,0.3c0.7,0.2,1.4,0.5,1.9,0.9l-0.5,1.1c-0.6-0.4-1.2-0.7-1.8-0.8
		c-0.7-0.2-1.3-0.3-1.9-0.3c-1.2,0-2.1,0.2-2.7,0.7c-0.6,0.5-0.9,1.1-0.9,1.8c0,0.5,0.2,1,0.5,1.3c0.3,0.3,0.7,0.6,1.2,0.8
		s1.2,0.4,2,0.6c1,0.2,1.8,0.5,2.4,0.7s1.1,0.6,1.6,1.1c0.4,0.5,0.6,1.1,0.6,2c0,0.7-0.2,1.3-0.6,1.9c-0.4,0.6-0.9,1-1.7,1.3
		c-0.8,0.3-1.7,0.5-2.8,0.5C912.3,621.4,911.3,621.2,910.4,620.9z"/>
	<path class="st0" d="M939,608.9c1,0.8,1.5,2,1.5,3.4s-0.5,2.6-1.5,3.4c-1,0.8-2.4,1.2-4.1,1.2h-3.7v4.3h-1.4v-13.6h5.1
		C936.6,607.6,938,608,939,608.9z M937.9,614.8c0.7-0.6,1.1-1.4,1.1-2.5c0-1.1-0.4-2-1.1-2.5c-0.7-0.6-1.7-0.9-3.1-0.9h-3.6v6.8h3.6
		C936.2,615.7,937.2,615.4,937.9,614.8z"/>
	<path class="st0" d="M949.8,616.6v4.7h-1.4v-4.7l-5.5-8.9h1.5l4.7,7.7l4.7-7.7h1.4L949.8,616.6z"/>
	<path class="st0" d="M968.1,621.3l-3.1-4.4c-0.4,0-0.7,0.1-1.1,0.1h-3.7v4.3h-1.4v-13.6h5.1c1.7,0,3.1,0.4,4.1,1.2
		c1,0.8,1.5,2,1.5,3.4c0,1.1-0.3,2-0.8,2.7s-1.3,1.3-2.3,1.6l3.3,4.7H968.1z M966.9,614.8c0.7-0.6,1.1-1.4,1.1-2.5
		c0-1.1-0.4-2-1.1-2.5s-1.7-0.9-3.1-0.9h-3.6v6.8h3.6C965.2,615.7,966.2,615.4,966.9,614.8z"/>
	<path class="st0" d="M984.1,620v1.2h-9.7v-13.6h9.4v1.2h-7.9v4.9h7.1v1.2h-7.1v5.1H984.1z M980.5,604.1h1.9l-3.2,2.4h-1.4
		L980.5,604.1z"/>
	<path class="st0" d="M1000.4,607.6v13.6h-1.2l-8.8-11.1v11.1H989v-13.6h1.2l8.8,11.1v-11.1H1000.4z"/>
	<path class="st0" d="M1016.1,620v1.2h-9.6v-13.6h9.4v1.2h-7.9v4.9h7.1v1.2h-7.1v5.1H1016.1z M1012.5,604.1h1.9l-3.2,2.4h-1.4
		L1012.5,604.1z"/>
	<path class="st0" d="M1030.7,620v1.2h-9.6v-13.6h9.4v1.2h-7.9v4.9h7.1v1.2h-7.1v5.1H1030.7z"/>
	<path class="st0" d="M1036.5,620.9c-0.9-0.3-1.6-0.8-2.2-1.3l0.6-1.1c0.5,0.5,1.2,0.9,2,1.2c0.8,0.3,1.7,0.5,2.5,0.5
		c1.2,0,2.1-0.2,2.7-0.7c0.6-0.4,0.9-1,0.9-1.7c0-0.5-0.2-1-0.5-1.3c-0.3-0.3-0.7-0.6-1.2-0.8c-0.5-0.2-1.2-0.4-2-0.6
		c-1-0.3-1.8-0.5-2.5-0.8s-1.1-0.6-1.6-1.1c-0.4-0.5-0.7-1.2-0.7-2c0-0.7,0.2-1.3,0.5-1.9c0.4-0.6,0.9-1,1.7-1.4s1.7-0.5,2.8-0.5
		c0.8,0,1.5,0.1,2.3,0.3c0.7,0.2,1.4,0.5,1.9,0.9l-0.5,1.1c-0.6-0.4-1.2-0.7-1.8-0.8c-0.7-0.2-1.3-0.3-1.9-0.3
		c-1.2,0-2.1,0.2-2.7,0.7c-0.6,0.5-0.9,1.1-0.9,1.8c0,0.5,0.2,1,0.5,1.3c0.3,0.3,0.7,0.6,1.2,0.8c0.5,0.2,1.2,0.4,2,0.6
		c1,0.2,1.8,0.5,2.4,0.7s1.1,0.6,1.6,1.1c0.4,0.5,0.6,1.1,0.6,2c0,0.7-0.2,1.3-0.6,1.9c-0.4,0.6-0.9,1-1.7,1.3
		c-0.8,0.3-1.7,0.5-2.8,0.5C1038.4,621.4,1037.4,621.2,1036.5,620.9z"/>
</g>
<g>
	<polygon class="st0" points="242.5,471 525.6,205.8 784.7,469.5 	"/>
	<g>
		<polygon class="st1" points="527.1,85 527.1,5.4 218.9,481.1 219.8,480.2 		"/>
		<polygon class="st2" points="527.2,85 835.2,480.8 527.2,5.4 527.1,5.4 527.1,85 		"/>
		<polygon class="st3" points="219.8,480.2 527.1,195.7 527.1,85 		"/>
		<polygon class="st4" points="527.1,85 527.1,195.7 527.2,195.7 835.4,481 835.2,480.8 527.2,85 		"/>
		<polygon class="st5" points="527.1,339 259,465.2 378.2,360 426.2,342.8 487.6,272 526.5,298 527.1,298 527.1,195.7 219.8,480.2 
			218.9,481.5 527.1,481.5 527.1,339 		"/>
		<polygon class="st6" points="835.4,481 527.2,195.7 527.1,195.7 527.1,227.2 583.9,292.7 584.7,324.9 622.9,361 527.1,339 
			527.1,481.5 835.7,481.5 		"/>
	</g>
</g>
<g>
	<path class="st0" d="M239.3,532.5c2.8,1.3,5,3.1,6.5,5.4c1.5,2.3,2.3,5.1,2.3,8.3c0,3.2-0.8,5.9-2.3,8.3c-1.5,2.4-3.7,4.2-6.5,5.4
		c-2.8,1.2-6.1,1.9-9.9,1.9h-8.7v11.9h-9.9v-43h18.6C233.2,530.6,236.5,531.2,239.3,532.5z M235.7,551.7c1.6-1.3,2.3-3.1,2.3-5.5
		c0-2.4-0.8-4.3-2.3-5.6c-1.6-1.3-3.8-1.9-6.8-1.9h-8.1v14.9h8.1C231.8,553.6,234.1,553,235.7,551.7z"/>
	<path class="st0" d="M293.3,565.6v8H260v-43h32.5v8h-22.6v9.3h20v7.7h-20v9.9H293.3z"/>
	<path class="st0" d="M333.5,573.6l-8.3-12h-0.5h-8.7v12h-9.9v-43h18.6c3.8,0,7.1,0.6,9.9,1.9c2.8,1.3,5,3.1,6.5,5.4
		c1.5,2.3,2.3,5.1,2.3,8.3c0,3.2-0.8,5.9-2.3,8.3c-1.5,2.3-3.7,4.1-6.5,5.3l9.6,13.8H333.5z M331,540.6c-1.6-1.3-3.8-1.9-6.8-1.9
		h-8.1v15h8.1c3,0,5.3-0.7,6.8-2c1.6-1.3,2.3-3.2,2.3-5.5C333.4,543.8,332.6,541.9,331,540.6z"/>
	<path class="st0" d="M395.3,573.6l-0.1-25.8L382.6,569h-4.5l-12.6-20.7v25.2h-9.3v-43h8.2l16.1,26.7l15.8-26.7h8.2l0.1,43H395.3z"
		/>
	<path class="st0" d="M448.1,564.4h-20l-3.8,9.2h-10.2l19.2-43h9.8l19.2,43h-10.4L448.1,564.4z M444.9,556.8l-6.8-16.5l-6.8,16.5
		H444.9z"/>
	<path class="st0" d="M500.2,532.5c2.8,1.3,5,3.1,6.5,5.4c1.5,2.3,2.3,5.1,2.3,8.3c0,3.2-0.8,5.9-2.3,8.3c-1.5,2.4-3.7,4.2-6.5,5.4
		c-2.8,1.2-6.1,1.9-9.9,1.9h-8.7v11.9h-9.9v-43h18.6C494.1,530.6,497.4,531.2,500.2,532.5z M496.6,551.7c1.6-1.3,2.3-3.1,2.3-5.5
		c0-2.4-0.8-4.3-2.3-5.6c-1.6-1.3-3.8-1.9-6.8-1.9h-8.1v14.9h8.1C492.7,553.6,495,553,496.6,551.7z"/>
	<path class="st0" d="M541.6,558.4v15.2h-9.9v-15.3L515,530.6h10.6l11.5,19.1l11.5-19.1h9.8L541.6,558.4z"/>
	<path class="st0" d="M594.3,573.6l-8.3-12h-0.5h-8.7v12h-9.9v-43h18.6c3.8,0,7.1,0.6,9.9,1.9c2.8,1.3,5,3.1,6.5,5.4
		s2.3,5.1,2.3,8.3c0,3.2-0.8,5.9-2.3,8.3c-1.5,2.3-3.7,4.1-6.5,5.3l9.6,13.8H594.3z M591.8,540.6c-1.6-1.3-3.8-1.9-6.8-1.9h-8.1v15
		h8.1c3,0,5.3-0.7,6.8-2c1.6-1.3,2.3-3.2,2.3-5.5C594.1,543.8,593.4,541.9,591.8,540.6z"/>
	<path class="st0" d="M650.2,565.6v8H617v-43h32.5v8h-22.6v9.3h20v7.7h-20v9.9H650.2z"/>
	<path class="st0" d="M702.5,530.6v43h-8.2l-21.4-26.1v26.1h-9.8v-43h8.2l21.4,26.1v-26.1H702.5z"/>
	<path class="st0" d="M750.9,565.6v8h-33.3v-43h32.5v8h-22.6v9.3h20v7.7h-20v9.9H750.9z"/>
	<path class="st0" d="M797,565.6v8h-33.3v-43h32.5v8h-22.6v9.3h20v7.7h-20v9.9H797z"/>
	<path class="st0" d="M814.1,572.9c-3.2-0.9-5.7-2.1-7.6-3.6l3.4-7.5c1.8,1.4,4,2.4,6.6,3.3c2.5,0.8,5.1,1.2,7.6,1.2
		c2.8,0,4.9-0.4,6.3-1.3c1.4-0.8,2-2,2-3.3c0-1-0.4-1.9-1.2-2.5c-0.8-0.7-1.8-1.2-3.1-1.6c-1.2-0.4-2.9-0.9-5.1-1.4
		c-3.3-0.8-6-1.6-8-2.3c-2.1-0.8-3.9-2-5.4-3.7c-1.5-1.7-2.2-4-2.2-6.9c0-2.5,0.7-4.8,2-6.8c1.4-2,3.4-3.6,6.1-4.8
		c2.7-1.2,6-1.8,10-1.8c2.7,0,5.4,0.3,8,1c2.6,0.7,4.9,1.6,6.9,2.8l-3.1,7.6c-4-2.2-7.9-3.4-11.9-3.4c-2.8,0-4.8,0.5-6.2,1.4
		c-1.3,0.9-2,2.1-2,3.6c0,1.5,0.8,2.6,2.3,3.3s3.9,1.4,7,2.1c3.3,0.8,6,1.6,8,2.3c2.1,0.8,3.9,2,5.4,3.7c1.5,1.7,2.2,4,2.2,6.8
		c0,2.5-0.7,4.7-2.1,6.7c-1.4,2-3.4,3.6-6.2,4.8c-2.7,1.2-6.1,1.8-10,1.8C820.6,574.3,817.3,573.9,814.1,572.9z"/>
</g>
</svg>
