<?xml version="1.0" encoding="utf-8"?>
<!-- Generator: Adobe Illustrator 24.2.3, SVG Export Plug-In . SVG Version: 6.00 Build 0)  -->
<svg version="1.1" id="Capa_1" xmlns="http://www.w3.org/2000/svg" xmlns:xlink="http://www.w3.org/1999/xlink" x="0px" y="0px"
	 viewBox="0 0 491.6 452.9" style="enable-background:new 0 0 491.6 452.9;" xml:space="preserve">
<style type="text/css">
	.st0{fill:#FFFFFF;}
	.st1{fill:#C5C5C5;}
	.st2{fill:#E0E0E0;}
	.st3{fill:#263D42;}
	.st4{fill:#4A7780;}
	.st5{fill:#7F584E;}
	.st6{fill:#926B5E;}
	.st7{font-family:'Montserrat-Bold';}
	.st8{font-size:47.2361px;}
	.st9{letter-spacing:3;}
</style>
<g>
	<polygon class="st0" points="26.6,367.7 244.4,163.7 443.8,366.6 	"/>
	<g>
		<polygon class="st1" points="245.6,70.8 245.6,9.6 8.5,375.5 9.2,374.8 		"/>
		<polygon class="st2" points="245.6,70.8 482.6,375.3 245.6,9.5 245.6,9.6 245.6,70.8 		"/>
		<polygon class="st3" points="9.2,374.8 245.6,156 245.6,70.8 		"/>
		<polygon class="st4" points="245.6,70.8 245.6,156 245.6,155.9 482.7,375.4 482.6,375.3 245.6,70.8 		"/>
		<polygon class="st5" points="245.6,266.2 39.4,363.2 131,282.3 168,269.1 215.2,214.6 245.1,234.6 245.6,234.6 245.6,156 
			9.2,374.8 8.5,375.8 245.6,375.8 245.6,266.2 		"/>
		<polygon class="st6" points="482.7,375.4 245.6,155.9 245.6,156 245.6,180.2 289.3,230.6 289.9,255.4 319.3,283.1 245.6,266.2 
			245.6,375.8 483,375.8 		"/>
	</g>
</g>
<text transform="matrix(1 0 0 1 -1.6523 446.6479)" class="st0 st7 st8 st9">PERMAPYRENEES</text>
</svg>
