<?xml version="1.0" encoding="utf-8"?>
<!-- Generator: Adobe Illustrator 24.2.3, SVG Export Plug-In . SVG Version: 6.00 Build 0)  -->
<svg version="1.1" id="Capa_1" xmlns="http://www.w3.org/2000/svg" xmlns:xlink="http://www.w3.org/1999/xlink" x="0px" y="0px"
	 viewBox="0 0 491.6 452.9" style="enable-background:new 0 0 491.6 452.9;" xml:space="preserve">
<style type="text/css">
	.st0{fill:#FFFFFF;}
	.st1{fill:#C5C5C5;}
	.st2{fill:#E0E0E0;}
	.st3{fill:#263D42;}
	.st4{fill:#4A7780;}
	.st5{fill:#7F584E;}
	.st6{fill:#926B5E;}
	.st7{fill:#292929;}
</style>
<g>
	<polygon class="st0" points="26.6,367.7 244.4,163.7 443.8,366.6 	"/>
	<g>
		<polygon class="st1" points="245.6,70.8 245.6,9.6 8.5,375.5 9.2,374.8 		"/>
		<polygon class="st2" points="245.6,70.8 482.6,375.3 245.6,9.5 245.6,9.6 245.6,70.8 		"/>
		<polygon class="st3" points="9.2,374.8 245.6,156 245.6,70.8 		"/>
		<polygon class="st4" points="245.6,70.8 245.6,156 245.6,155.9 482.7,375.4 482.6,375.3 245.6,70.8 		"/>
		<polygon class="st5" points="245.6,266.2 39.4,363.2 131,282.3 168,269.1 215.2,214.6 245.1,234.6 245.6,234.6 245.6,156 
			9.2,374.8 8.5,375.8 245.6,375.8 245.6,266.2 		"/>
		<polygon class="st6" points="482.7,375.4 245.6,155.9 245.6,156 245.6,180.2 289.3,230.6 289.9,255.4 319.3,283.1 245.6,266.2 
			245.6,375.8 483,375.8 		"/>
	</g>
</g>
<g>
	<g>
		<path class="st7" d="M24.2,415c2.2,1,3.8,2.4,5,4.2c1.2,1.8,1.7,3.9,1.7,6.4c0,2.4-0.6,4.5-1.7,6.4c-1.2,1.8-2.8,3.2-5,4.2
			c-2.2,1-4.7,1.4-7.6,1.4H9.9v9.1H2.3v-33.1h14.3C19.5,413.6,22.1,414.1,24.2,415z M21.4,429.8c1.2-1,1.8-2.4,1.8-4.2
			c0-1.9-0.6-3.3-1.8-4.3c-1.2-1-2.9-1.5-5.2-1.5H9.9v11.5h6.2C18.5,431.3,20.2,430.8,21.4,429.8z"/>
		<path class="st7" d="M65.8,440.5v6.1H40.2v-33.1h25v6.1H47.8v7.2h15.4v6H47.8v7.7H65.8z"/>
		<path class="st7" d="M96.7,446.6l-6.4-9.2h-0.4h-6.7v9.2h-7.7v-33.1h14.3c2.9,0,5.5,0.5,7.6,1.5c2.2,1,3.8,2.4,5,4.2
			c1.2,1.8,1.7,3.9,1.7,6.4c0,2.5-0.6,4.6-1.8,6.4c-1.2,1.8-2.9,3.1-5,4.1l7.4,10.6H96.7z M94.8,421.3c-1.2-1-2.9-1.5-5.2-1.5h-6.2
			v11.5h6.2c2.3,0,4-0.5,5.2-1.5c1.2-1,1.8-2.4,1.8-4.3C96.6,423.7,96,422.3,94.8,421.3z"/>
		<path class="st7" d="M144.2,446.6l0-19.8l-9.7,16.3H131l-9.7-15.9v19.4h-7.2v-33.1h6.3l12.4,20.5l12.2-20.5h6.3l0.1,33.1H144.2z"
			/>
		<path class="st7" d="M184.8,439.6h-15.4l-2.9,7.1h-7.8l14.7-33.1h7.6l14.8,33.1h-8L184.8,439.6z M182.4,433.8l-5.2-12.7l-5.2,12.7
			H182.4z"/>
		<path class="st7" d="M224.9,415c2.2,1,3.8,2.4,5,4.2c1.2,1.8,1.7,3.9,1.7,6.4c0,2.4-0.6,4.5-1.7,6.4c-1.2,1.8-2.8,3.2-5,4.2
			c-2.2,1-4.7,1.4-7.6,1.4h-6.7v9.1H203v-33.1h14.3C220.2,413.6,222.8,414.1,224.9,415z M222.1,429.8c1.2-1,1.8-2.4,1.8-4.2
			c0-1.9-0.6-3.3-1.8-4.3c-1.2-1-2.9-1.5-5.2-1.5h-6.2v11.5h6.2C219.2,431.3,220.9,430.8,222.1,429.8z"/>
		<path class="st7" d="M256.7,434.9v11.7h-7.7v-11.8l-12.8-21.3h8.1l8.8,14.7l8.8-14.7h7.5L256.7,434.9z"/>
		<path class="st7" d="M297.3,446.6l-6.4-9.2h-0.4h-6.7v9.2h-7.7v-33.1h14.3c2.9,0,5.5,0.5,7.6,1.5s3.8,2.4,5,4.2s1.7,3.9,1.7,6.4
			c0,2.5-0.6,4.6-1.8,6.4c-1.2,1.8-2.9,3.1-5,4.1l7.4,10.6H297.3z M295.4,421.3c-1.2-1-2.9-1.5-5.2-1.5h-6.2v11.5h6.2
			c2.3,0,4-0.5,5.2-1.5c1.2-1,1.8-2.4,1.8-4.3C297.2,423.7,296.6,422.3,295.4,421.3z"/>
		<path class="st7" d="M340.3,440.5v6.1h-25.6v-33.1h25v6.1h-17.4v7.2h15.4v6h-15.4v7.7H340.3z"/>
		<path class="st7" d="M380.5,413.6v33.1h-6.3l-16.5-20.1v20.1h-7.6v-33.1h6.3l16.4,20.1v-20.1H380.5z"/>
		<path class="st7" d="M417.8,440.5v6.1h-25.6v-33.1h25v6.1h-17.4v7.2h15.4v6h-15.4v7.7H417.8z"/>
		<path class="st7" d="M453.2,440.5v6.1h-25.6v-33.1h25v6.1h-17.4v7.2h15.4v6h-15.4v7.7H453.2z"/>
		<path class="st7" d="M466.4,446.2c-2.4-0.7-4.4-1.6-5.9-2.8l2.6-5.8c1.4,1,3.1,1.9,5.1,2.5c2,0.6,3.9,0.9,5.9,0.9
			c2.2,0,3.8-0.3,4.8-1c1-0.6,1.6-1.5,1.6-2.6c0-0.8-0.3-1.4-0.9-2s-1.4-0.9-2.4-1.3c-1-0.3-2.3-0.7-3.9-1c-2.5-0.6-4.6-1.2-6.2-1.8
			c-1.6-0.6-3-1.6-4.1-2.9s-1.7-3.1-1.7-5.3c0-1.9,0.5-3.7,1.6-5.2s2.6-2.8,4.7-3.7c2.1-0.9,4.7-1.4,7.7-1.4c2.1,0,4.2,0.3,6.2,0.8
			c2,0.5,3.8,1.2,5.3,2.2l-2.4,5.8c-3.1-1.7-6.1-2.6-9.2-2.6c-2.1,0-3.7,0.3-4.7,1c-1,0.7-1.5,1.6-1.5,2.7c0,1.1,0.6,2,1.8,2.5
			s3,1.1,5.4,1.6c2.5,0.6,4.6,1.2,6.2,1.8c1.6,0.6,3,1.5,4.1,2.8c1.1,1.3,1.7,3,1.7,5.2c0,1.9-0.5,3.6-1.6,5.2
			c-1.1,1.6-2.6,2.8-4.7,3.7c-2.1,0.9-4.7,1.4-7.7,1.4C471.3,447.2,468.8,446.9,466.4,446.2z"/>
	</g>
</g>
</svg>
