<?xml version="1.0" encoding="utf-8"?>
<!-- Generator: Adobe Illustrator 24.2.3, SVG Export Plug-In . SVG Version: 6.00 Build 0)  -->
<svg version="1.1" id="Capa_1" xmlns="http://www.w3.org/2000/svg" xmlns:xlink="http://www.w3.org/1999/xlink" x="0px" y="0px"
	 viewBox="0 0 141.7 141.7" style="enable-background:new 0 0 141.7 141.7;" xml:space="preserve">
<style type="text/css">
	.st0{fill:#4A7780;}
	.st1{fill:none;stroke:#FFFFFF;stroke-width:5.6462;stroke-miterlimit:10;}
	.st2{fill:none;stroke:#FFFFFF;stroke-width:5.6462;stroke-linecap:round;stroke-miterlimit:10;}
</style>
<circle class="st0" cx="70.9" cy="70.9" r="70.9"/>
<polygon class="st1" points="41.8,47 38.1,59.1 27.7,73.9 36.6,83.9 40.2,98.6 60.9,100.9 94.3,77 82.6,61.4 86.6,43.5 62.8,37.1 
	"/>
<polyline class="st1" points="61.1,99.2 62.1,73.5 55,63.1 62.8,37.1 "/>
<line class="st1" x1="38.3" y1="58.6" x2="57.2" y2="56"/>
<line class="st1" x1="28.5" y1="74.8" x2="55.4" y2="63.6"/>
<line class="st1" x1="36.6" y1="83.9" x2="62.1" y2="73.5"/>
<line class="st1" x1="39.7" y1="91.6" x2="61.5" y2="87.8"/>
<polygon class="st2" points="22.4,47 27.7,41.8 35.5,41.8 28.5,52.5 "/>
<polygon class="st2" points="93.2,49.9 99.1,55 107.1,43.9 98,43.9 "/>
<polygon class="st2" points="67.6,115.7 73.5,120.8 81.5,109.8 72.4,109.8 "/>
<g>
	<circle class="st2" cx="91.1" cy="79.1" r="17.6"/>
	<line class="st2" x1="105.1" y1="90" x2="119.1" y2="104"/>
</g>
</svg>
