<?xml version="1.0" encoding="utf-8"?>
<!-- Generator: Adobe Illustrator 24.2.3, SVG Export Plug-In . SVG Version: 6.00 Build 0)  -->
<svg version="1.1" id="Capa_1" xmlns="http://www.w3.org/2000/svg" xmlns:xlink="http://www.w3.org/1999/xlink" x="0px" y="0px"
	 viewBox="0 0 141.7 141.7" style="enable-background:new 0 0 141.7 141.7;" xml:space="preserve">
<style type="text/css">
	.st0{fill:#FFFFFF;}
	.st1{fill:#4A7780;}
</style>
<g>
	<circle class="st0" cx="70.5" cy="71.3" r="70.9"/>
</g>
<g>
	<g>
		<path class="st1" d="M31.9,103.9V45.5l26.3-8.7l24.5,8.1l26.5-8.5v58.1L82.3,103l-23.8-7.9L31.9,103.9z M58.5,89.1L82.3,97
			l21.3-6.7V44.1l-20.9,6.7l-24.5-8.1l-20.7,6.9v46.6L58.5,89.1z"/>
	</g>
	<g>
		<path class="st1" d="M58.5,94.3c-1.6,0-2.8-1.3-2.8-2.8V40.3c0-1.6,1.3-2.8,2.8-2.8s2.8,1.3,2.8,2.8v51.2
			C61.3,93.1,60.1,94.3,58.5,94.3z"/>
	</g>
	<g>
		<path class="st1" d="M82.4,101.5c-1.6,0-2.8-1.3-2.8-2.8V47.5c0-1.6,1.3-2.8,2.8-2.8s2.8,1.3,2.8,2.8v51.2
			C85.2,100.3,84,101.5,82.4,101.5z"/>
	</g>
</g>
</svg>
