<?xml version="1.0" encoding="utf-8"?>
<!-- Generator: Adobe Illustrator 24.2.3, SVG Export Plug-In . SVG Version: 6.00 Build 0)  -->
<svg version="1.1" id="Capa_1" xmlns="http://www.w3.org/2000/svg" xmlns:xlink="http://www.w3.org/1999/xlink" x="0px" y="0px"
	 viewBox="0 0 141.7 141.7" style="enable-background:new 0 0 141.7 141.7;" xml:space="preserve">
<style type="text/css">
	.st0{fill:#4A7780;}
	.st1{fill:none;stroke:#FFFFFF;stroke-width:5.6462;stroke-miterlimit:10;}
	.st2{fill:none;stroke:#FFFFFF;stroke-width:5.6462;stroke-linecap:round;stroke-miterlimit:10;}
	.st3{fill:none;stroke:#FFFFFF;stroke-width:6.3008;stroke-miterlimit:10;}
	.st4{fill:none;stroke:#FFFFFF;stroke-width:6.3008;stroke-linecap:round;stroke-miterlimit:10;}
</style>
<circle class="st0" cx="70.9" cy="70.9" r="70.9"/>
<g>
	<path class="st1" d="M103.1,99.8c8.2-7,13.3-17.4,13.3-28.9S111.2,49,103.1,42"/>
	<path class="st2" d="M95.5,89.6c5-4.6,8.2-11.3,8.2-18.7s-3.2-14.1-8.2-18.7c5,4.6,8.2,11.3,8.2,18.7S100.5,84.9,95.5,89.6z"/>
	<circle class="st3" cx="53.6" cy="96.6" r="7.7"/>
	<circle class="st3" cx="84" cy="70.8" r="7.7"/>
	<path class="st3" d="M64.4,80V36.2c0-6-4.8-10.8-10.8-10.8s-10.8,4.8-10.8,10.8V80c-5.4,3.5-9,9.7-9,16.6c0,11,8.9,19.8,19.8,19.8
		s19.8-8.9,19.8-19.8C73.4,89.6,69.8,83.5,64.4,80z"/>
	<line class="st4" x1="53.6" y1="88.9" x2="53.6" y2="72.9"/>
</g>
<line class="st4" x1="42.8" y1="58.3" x2="54.5" y2="58.3"/>
<line class="st4" x1="42.8" y1="45.7" x2="54.5" y2="45.7"/>
</svg>
