<?xml version="1.0" encoding="utf-8"?>
<!-- Generator: Adobe Illustrator 24.2.3, SVG Export Plug-In . SVG Version: 6.00 Build 0)  -->
<svg version="1.1" id="Capa_1" xmlns="http://www.w3.org/2000/svg" xmlns:xlink="http://www.w3.org/1999/xlink" x="0px" y="0px"
	 viewBox="0 0 141.7 141.7" style="enable-background:new 0 0 141.7 141.7;" xml:space="preserve">
<style type="text/css">
	.st0{fill:#FFFFFF;}
	.st1{fill:none;stroke:#4A7780;stroke-width:5.6462;stroke-miterlimit:10;}
	.st2{fill:none;stroke:#4A7780;stroke-width:5.6462;stroke-linecap:round;stroke-miterlimit:10;}
</style>
<circle class="st0" cx="70.9" cy="70.9" r="70.9"/>
<circle class="st1" cx="70.9" cy="70.2" r="11"/>
<path class="st1" d="M59.9,116c0-6.1,4.9-11,11-11c6.1,0,11,4.9,11,11"/>
<path class="st2" d="M46.1,99.1"/>
<path class="st2" d="M95.7,99.1"/>
<path class="st1" d="M95.7,41.2"/>
<path class="st1" d="M46.1,41.2"/>
<path class="st1" d="M95.7,41.2c8.2,7,13.3,17.4,13.3,28.9s-5.2,21.9-13.3,28.9"/>
<path class="st1" d="M46.1,99.1c-8.2-7-13.3-17.4-13.3-28.9s5.2-21.9,13.3-28.9"/>
<path class="st1" d="M95.7,99.1c8.2-7,13.3-17.4,13.3-28.9s-5.2-21.9-13.3-28.9"/>
<path class="st1" d="M46.1,41.2c-8.2,7-13.3,17.4-13.3,28.9s5.2,21.9,13.3,28.9"/>
<path class="st2" d="M53.7,88.9c-5-4.6-8.2-11.3-8.2-18.7s3.2-14.1,8.2-18.7c-5,4.6-8.2,11.3-8.2,18.7S48.6,84.2,53.7,88.9z"/>
<path class="st2" d="M88.1,88.9c5-4.6,8.2-11.3,8.2-18.7s-3.2-14.1-8.2-18.7c5,4.6,8.2,11.3,8.2,18.7S93.1,84.2,88.1,88.9z"/>
<path class="st1" d="M37.9,107.9"/>
<path class="st1" d="M103.8,107.9"/>
<path class="st1" d="M103.8,32.4"/>
<path class="st1" d="M37.9,32.4"/>
<path class="st1" d="M103.8,32.4c10.5,9.2,17.2,22.7,17.2,37.8s-6.7,28.6-17.2,37.8"/>
<path class="st1" d="M37.9,107.9c-10.5-9.2-17.2-22.7-17.2-37.8s6.7-28.6,17.2-37.8"/>
<path class="st1" d="M103.8,107.9c10.5-9.2,17.2-22.7,17.2-37.8s-6.7-28.6-17.2-37.8"/>
<path class="st1" d="M37.9,32.4c-10.5,9.2-17.2,22.7-17.2,37.8s6.7,28.6,17.2,37.8"/>
<line class="st2" x1="70.9" y1="81.5" x2="70.9" y2="103.3"/>
</svg>
