<?xml version="1.0" encoding="utf-8"?>
<!-- Generator: Adobe Illustrator 24.2.3, SVG Export Plug-In . SVG Version: 6.00 Build 0)  -->
<svg version="1.1" id="Capa_1" xmlns="http://www.w3.org/2000/svg" xmlns:xlink="http://www.w3.org/1999/xlink" x="0px" y="0px"
	 viewBox="0 0 141.7 141.7" style="enable-background:new 0 0 141.7 141.7;" xml:space="preserve">
<style type="text/css">
	.st0{fill:none;stroke:#4A7780;stroke-width:8.5087;stroke-linecap:round;stroke-miterlimit:10;}
</style>
<g>
	<path class="st0" d="M108.7,50.1c0,7.4-2.1,14.2-5.7,20L87.3,97.4l-14.2,24.6l-2.5,4.4l-2.5-4.4L53.8,97.4L38.1,70.2
		c-3.6-5.8-5.7-12.7-5.7-20C32.4,29.1,49.5,12,70.5,12S108.7,29.1,108.7,50.1z"/>
	<path class="st0" d="M70.5,38.4c1.6,0,3.1,0.3,4.6,0.9c1.4,0.6,2.7,1.4,3.7,2.5c1.1,1.1,1.9,2.3,2.5,3.7c0.6,1.4,0.9,3,0.9,4.6
		s-0.3,3.1-0.9,4.6c-0.6,1.4-1.4,2.7-2.5,3.7c-1.1,1.1-2.3,1.9-3.7,2.5c-1.4,0.6-3,0.9-4.6,0.9S67.4,61.6,66,61
		c-1.4-0.6-2.7-1.4-3.7-2.5c-1.1-1.1-1.9-2.3-2.5-3.7c-0.6-1.4-0.9-3-0.9-4.6s0.3-3.1,0.9-4.6c0.6-1.4,1.4-2.7,2.5-3.7
		c1.1-1.1,2.3-1.9,3.7-2.5C67.4,38.7,68.9,38.4,70.5,38.4"/>
</g>
</svg>
